<?xml version="1.0" encoding="UTF-8"?>
<svg id="Layer_2" data-name="Layer 2" xmlns="http://www.w3.org/2000/svg" xmlns:xlink="http://www.w3.org/1999/xlink" viewBox="0 0 288.13 419.15">
  <defs>
    <style>
      .cls-1 {
        fill: #d2b7b2;
      }

      .cls-1, .cls-2, .cls-3, .cls-4, .cls-5, .cls-6, .cls-7, .cls-8, .cls-9, .cls-10, .cls-11, .cls-12, .cls-13, .cls-14, .cls-15, .cls-16, .cls-17, .cls-18, .cls-19, .cls-20, .cls-21, .cls-22, .cls-23, .cls-24, .cls-25, .cls-26, .cls-27, .cls-28, .cls-29, .cls-30, .cls-31, .cls-32, .cls-33, .cls-34, .cls-35, .cls-36, .cls-37, .cls-38, .cls-39, .cls-40, .cls-41, .cls-42, .cls-43, .cls-44, .cls-45, .cls-46, .cls-47, .cls-48, .cls-49, .cls-50, .cls-51, .cls-52, .cls-53 {
        stroke-width: 0px;
      }

      .cls-2 {
        fill: #9d5c44;
      }

      .cls-3 {
        fill: #adcedc;
      }

      .cls-4 {
        fill: #a79a73;
      }

      .cls-5 {
        fill: #975a25;
      }

      .cls-6 {
        fill: #ca8a63;
      }

      .cls-7 {
        fill: #4d4634;
      }

      .cls-8 {
        fill: #d6e9f0;
      }

      .cls-9 {
        fill: #ebb55d;
      }

      .cls-10 {
        fill: #9c9180;
      }

      .cls-11 {
        fill: #382b1d;
      }

      .cls-12 {
        fill: #ea8d98;
      }

      .cls-13 {
        fill: #622e13;
      }

      .cls-14 {
        fill: url(#linear-gradient);
      }

      .cls-15 {
        fill: #7d7865;
      }

      .cls-16 {
        fill: #c7b6a9;
      }

      .cls-17 {
        fill: #421313;
      }

      .cls-18 {
        fill: #8c8771;
      }

      .cls-19 {
        fill: #50433b;
      }

      .cls-20 {
        fill: #8e4b38;
      }

      .cls-21 {
        fill: #472e1c;
      }

      .cls-22 {
        fill: #e3e4e4;
      }

      .cls-23 {
        fill: #919083;
      }

      .cls-24 {
        fill: #3c3733;
      }

      .cls-25 {
        fill: #cf8d35;
      }

      .cls-26 {
        fill: #d86679;
      }

      .cls-27 {
        fill: #b07253;
      }

      .cls-28 {
        fill: #aaa38c;
      }

      .cls-29 {
        fill: #161412;
      }

      .cls-30 {
        fill: #864920;
      }

      .cls-31 {
        fill: #88c2cf;
      }

      .cls-32 {
        fill: #bdb5a4;
      }

      .cls-33 {
        fill: #3d1b0e;
      }

      .cls-34 {
        fill: #621316;
      }

      .cls-35 {
        fill: #fdfeff;
      }

      .cls-36 {
        fill: #221e16;
      }

      .cls-37 {
        fill: url(#linear-gradient-4);
      }

      .cls-38 {
        fill: url(#linear-gradient-2);
      }

      .cls-39 {
        fill: url(#linear-gradient-3);
      }

      .cls-40 {
        fill: #ab6427;
      }

      .cls-41 {
        fill: #e9e0cc;
      }

      .cls-42 {
        fill: #733320;
      }

      .cls-43 {
        fill: #595a4a;
      }

      .cls-44 {
        fill: #696655;
      }

      .cls-45 {
        fill: #723c18;
      }

      .cls-46 {
        fill: #2b170f;
      }

      .cls-47 {
        fill: #323026;
      }

      .cls-48 {
        fill: #cec7ae;
      }

      .cls-49 {
        fill: #959696;
      }

      .cls-50 {
        fill: #5c5551;
      }

      .cls-51 {
        fill: #674a32;
      }

      .cls-52 {
        fill: #807e7d;
      }

      .cls-53 {
        fill: #b67029;
      }
    </style>
    <linearGradient id="linear-gradient" x1="222.99" y1="363.05" x2="248.29" y2="373.76" gradientUnits="userSpaceOnUse">
      <stop offset="0" stop-color="#6e6555"/>
      <stop offset="1" stop-color="#cac5a8"/>
    </linearGradient>
    <linearGradient id="linear-gradient-2" x1="11.35" y1="62.94" x2="46.4" y2="68.41" gradientUnits="userSpaceOnUse">
      <stop offset="0" stop-color="#d08f66"/>
      <stop offset="1" stop-color="#995a42"/>
    </linearGradient>
    <linearGradient id="linear-gradient-3" x1="116.61" y1="371.94" x2="84" y2="381.47" gradientUnits="userSpaceOnUse">
      <stop offset="0" stop-color="#69614f"/>
      <stop offset="1" stop-color="#cec5a6"/>
    </linearGradient>
    <linearGradient id="linear-gradient-4" x1="131.91" y1="221.27" x2="121.87" y2="343.76" gradientUnits="userSpaceOnUse">
      <stop offset="0" stop-color="#706957"/>
      <stop offset=".23" stop-color="#ddd6b9"/>
      <stop offset=".61" stop-color="#d1c9ad"/>
      <stop offset="1" stop-color="#7a735e"/>
    </linearGradient>
  </defs>
  <g id="Layer_1-2" data-name="Layer 1">
    <g>
      <path class="cls-14" d="M253.94,365.88c-.49,3.28-.53,6.71-1,9.99-.33,2.28-.36,4.78-.5,5.5-.05.24-.93-.9-1.5,4-1.22-.67-2.65-1.2-4-1.5-2.83-.64-15.72-1.36-18.49-.5-1.53-.24-2.93.12-4.5-.5-.82-.32-.68.5-1-1-.03-.16.03-.34,0-.5,2.61-12.31-.43-10.15-.5-10.74-.1-.87,1.03-1.31,1-1.5-1.43-8.9-7.15-17.98-6.99-18.98.07-.46,5.08-4.72,6.49-6.74,5.79,12.17,18.37,19.28,30.98,22.48Z"/>
      <path class="cls-13" d="M256.44,351.39c-.39,4.11-1.45,7.97-2,11.99-.22,1.63-.47,2.29-.5,2.5-12.61-3.2-25.19-10.31-30.98-22.48,1.01-1.45,1.74-1.15,2-1.75.36-.83.7-7.31,1.5-10.24.03-.01-.2-.3.5-.5,1.15-.32,1.87-.36,3-.5.69,1.17-2.14,4.62-2.5,7.74-1.31,11.35,9.97,19.98,17.74,18.24,8.25-1.85,9.04-22.75,11.74-28.48.28,8.03.26,15.47-.5,23.48Z"/>
      <path class="cls-11" d="M119.17,351.89v6.99c0,11.49.05,30.34-1,40.97-.4,4.04-2.51,7.46-.75,7.49q6-1.75,11.99-3.5c.77-.74-1.19-2.25-1.75-4.5.21.05.97.45,1,.5,3.63,5.5,5.03,1.52,13.49,1.5.47,0,.52.5,1,.5,3.58,0,12.05-.32,13.74,0,.39.07-.08,2.79,1.75.75,3.09-16.49,2.63-32.99,2.5-49.71.55-.12.78-.72,1.5-.5,1.24,11.16,1.09,24.74.5,35.97-1.01,19.12-4.91,12.5,6.25,0,1.02-.17,1.3-1.04,1.25.5-1.75,1.13-6.87,7.88-7.49,9.74-1.08,3.23-.77,4.65.5,7.74,3.08,7.48,19.94,11.82,25.98,7.49.06-.04.55.11.5-.5,2.72,3.34,18.62.16,21.73-2.5,2.7-2.31,1.71-4.25,1.75-4.5.33-1.9.9-4.07.5-6,2.7-.12,5.3.39,7.99.5,7.79.31,15.69,1,23.48,0-.13.09-1.93,2.07-2,2.5-2.02.61-3.95.7-6,1-10.02,1.46-21.8.35-22.73,1-.32.22.36,2.16-2.25,7.49-.52,1.07-1.52,2.12-1.5,3.5-1.99.47-5.04,2.03-10.74,2.5-7.63.62-28.71.67-34.72-3.5-.28-.2-2.44-2.8-3-3.5-2.48-3.11-1.86-5.07-2.75-5.5-1.24-.59-24.35.12-27.48.5-3.42.42-13.54,3.3-20.73,4.5-13.18,2.19-18.73,3.66-32.97,1.5,1.6-1.13.73-.91.5-2.5,6.33.76,13.16.77,19.48,0,5.23-.63,14.9-2.23,16.99-7.74,1.32-3.48,2.69-49.18,1.5-51.46-.21-.39-2.49.73-8.74-1.75-6.23-2.47-9.04-5.12-9.74-5.5,6.28,2.67,12.77,4.42,19.23,6.49,1.63.52,1.16,1.47,1.25,1.5Z"/>
      <path class="cls-50" d="M66.09,392.22c-.79.94-2.87,5.27-3,6.49-.98,9.53,7.69,9.22,10.99,9.99,1.46.34,3.43,1.31,5,1.5.23,1.59,1.1,1.37-.5,2.5-3-.46-9.03-1.51-11.49-3-4.79-2.89-5.88-8.47-4.5-13.49.06-.23,2.1-3.48,2.5-4h1Z"/>
      <path class="cls-47" d="M154.52,45.13c-5.3.82,9.89,5.23,15.74,7.99,5.62,2.65,27.28,14.24,29.73,18.74,2.76,5.06,5.69,37,6,44.46.29,7.16,1.24,11.35-2,12.24-1.61-11.15-3.44-19.78-9.99-29.23-6.99-10.08-10.39-10.9-20.48-14.74-.13-.05-.85-1.25-2.5-1,2.02-3.81,1.27-9.94-5-11.49-.03,0,.12-.55-.5-.5,4.15-.86-4.87-2.3-8.74-1.5-.41.09-.08.89-.5,1-6.56,1.7-6.1,3.75-11.99,6.49l-.25-5.5c4.37-9.08,16.74-29.29-1-29.98.16,0,.55-.97,3.25-.5.88.15,6.39,2.96,8.24,3.5Z"/>
      <path class="cls-19" d="M118.55,41.64c-24.75,1.05-13.24,21.68-8.49,35.47-4.85-3.33-1.63-.85-2.75-.5-2.09.65-4.79-3.12-6.49-4-3.19-1.64-9.72-4.52-11.74-.5-2.03,1.61-.7,3.24.5,6.49-2.44.59-4.67,1.58-6.99,2.5-4.12,1.63-2.81,1.92-3,2-.68.28-4.41.33-5.75,1-6.77,3.4-11.07,8.97-15.24,14.99-1.44.61,1.99-12.74,3-16.24,5.52-19.09,6.29-19.48,18.74-25.73,7.59-3.81,24.4-8.56,25.23-13.49,5.87-1.47,6.96-1.86,12.99-2Z"/>
      <path class="cls-29" d="M154.52,45.13c13.36,3.91,26.38,8.98,38.47,15.99,1.45.84,8.9,5.08,9.24,5.5,4.28,5.09,9.44,44.69,10.24,53.46.91,10.02.28,23.72,1,24.73.64.9,7.02-.54,8.99.75-2.62,1.73-8.49,6.33-10.99,8.49-1.08.93-2.73-1.27-5,7.99-.65.04-.48-.44-.5-1-.08-2.33.07-4.67,0-6.99-.27-8.52-.78-17.04-2-25.48,3.24-.89,2.29-5.08,2-12.24-.3-7.46-3.24-39.41-6-44.46-2.45-4.5-24.11-16.08-29.73-18.74-5.85-2.76-21.04-7.18-15.74-7.99Z"/>
      <path class="cls-29" d="M58.6,99.09c-.85,1.23-1.67,2.7-2.5,4-1.41,2.2-.84,3.58-3.25,5-2.42-1.86.6-4.56-1.75-4.5,1.67-5.81,3.18-11.73,5-17.49,1.44-4.58,2.87-9.23,4.5-13.74,1.78-4.93,5.67-8.26,4.5-13.24,4.06-1.09,7.67-3.35,11.49-5,8.15-3.52,20.54-8.38,28.98-10.49-.83,4.93-17.64,9.68-25.23,13.49-12.44,6.25-13.22,6.64-18.74,25.73-1.01,3.5-4.43,16.84-3,16.24Z"/>
      <g>
        <path class="cls-30" d="M88.58,350.39c-4.76,2.72-9.92,4.91-14.99,6.99-.22-.77-.78-1.73-1-2.5-.82-2.88-2.25-5.8-3-8.49-2.11-9.49-4.23-19.03-6.49-28.48l1-.75c6,12.67,14.91,23.22,24.48,33.22Z"/>
        <path class="cls-13" d="M72.59,323.91c.28.3.72,1.21,1,1.5-.09,4.76,5.63,8.37,9.24,11.49.34.3,1.69-.74,2.5,0,.17.15-.3,1.99,1.75,3.75,1.91,1.64,6.4,2.93,6.99,6.25-1.77,1.26-3.61,2.42-5.5,3.5-9.57-10.01-18.48-20.56-24.48-33.22l-1,.75c-.64-2.67-1.42-5.3-2-7.99,3.41,5.18,7.29,9.46,11.49,13.99Z"/>
        <path class="cls-13" d="M86.08,336.4c4.06,2.96,7.75,4.64,11.99,6.99-.96,1.53-2.58,2.48-4,3.5-.59-3.32-5.08-4.6-6.99-6.25-2.05-1.76-1.58-3.6-1.75-3.75-.81-.74-2.16.3-2.5,0-3.61-3.12-9.33-6.73-9.24-11.49,3.82,3.98,8.01,7.73,12.49,10.99Z"/>
      </g>
      <path class="cls-13" d="M226.47,331.41c-.8,2.93-1.13,9.41-1.5,10.24-.26.59-.98.3-2,1.75-1.42,2.02-6.42,6.28-6.49,6.74-.15,1,5.56,10.09,6.99,18.98.03.18-1.09.63-1,1.5.06.59,3.11-1.57.5,10.74-1.74-8.21-1.9-23.49-8.49-28.48-.25-2.89-2.67-5.59-4.5-7.99-1.3-8.6-5.3-9.71,5.75.5.95-.3,3.45-9.58,3.75-10.99,2.31-1.26,4.48-2.17,6.99-3Z"/>
      <path class="cls-29" d="M240.95,240.98c2.26,4.85,3.83,7.17,8.49,3,2.56,7.14-2.11,13.73,4,9.49-8.6,16.77-15.49,19.43-15.49,20.73,0,.81,5.22,3.97,9.99,12.74-2.73-1.45-10.29-.86-11.99,1.25-1.38,1.7-8.87,37.47-8.99,42.72-.7.2-.47.49-.5.5-2.51.82-4.68,1.74-6.99,3,.55-2.61.72-5.34,1-7.99,1.31-12.34,1.14-32.82-4-44.22-3.29-7.31-6.04-6.09-13.49-7.24,3.09-8.47,4.05-11.18,3-19.98-.7-5.81-2.46-13.27-4-18.98-.18-.66-.3-1.31-.5-2,3.76-2.7,2.6-3.11,1-6.49,6.45,4.86,1.46,3.7,1.5,5.25.04,1.62,7.4,5.52,7.49,6,.07.36-3.16,2.3,3,5-7.64,7.11-1.27,19.52,8.74,21.23,6.39-6.07,14.32-15.93,17.74-23.98Z"/>
      <path class="cls-29" d="M247.95,286.94c4.58,8.41,7.32,18.48,8.49,27.98-1.69-.19-.74,7.64-2,12.74-3.33,13.47-6.06.52-24.48,2.75-1.13.14-1.85.18-3,.5.12-5.25,7.62-41.02,8.99-42.72,1.71-2.1,9.26-2.69,11.99-1.25Z"/>
      <path class="cls-30" d="M256.44,314.92c.53,4.28.35,8.69.5,12.99-2.7,5.72-3.49,26.63-11.74,28.48-7.77,1.74-19.05-6.89-17.74-18.24.36-3.12,3.19-6.58,2.5-7.74,18.42-2.23,21.15,10.72,24.48-2.75,1.26-5.1.3-12.93,2-12.74Z"/>
      <g>
        <path class="cls-51" d="M61.6,33.14c3.52,4.27,6.43,8.9,9.49,13.49l-11.49,2c-5.75-9.52-22.77-27.34-33.72-29.48-32.68-6.38,2.74,70.84,7.24,82.43l-7.99.5c-1.43-1.56-3.25-3.01-4.5-4.75-2.21-3.07-4.27-9.71-5.5-8.24-3.92-12.73-9.64-24.89-12.49-37.97C-11.23-12.52,32.65-1.91,61.6,33.14Z"/>
        <path class="cls-5" d="M76.58,54.13c-3.82,1.65-7.43,3.91-11.49,5-.26-1.09-4.37-8.62-5.5-10.49l11.49-2c1.68,2.52,3.43,5.27,5.5,7.49Z"/>
        <path class="cls-21" d="M33.12,101.59c1.19,3.06,2.3,6.28,3,9.49-4.95-3.16-6.96-4.63-10.99-8.99l7.99-.5Z"/>
        <g>
          <path class="cls-38" d="M59.6,48.63c1.13,1.87,5.24,9.4,5.5,10.49,1.18,4.98-2.72,8.31-4.5,13.24-1.63,4.51-3.05,9.16-4.5,13.74.26-14.53-1.99-25.01-8.99-37.72-9.1-16.53.32,3.6,1.5,9.99,3.39,18.4-.05,38.42-7.99,55.21-1.52-.81-3.05-1.57-4.5-2.5-.7-3.22-1.81-6.44-3-9.49C28.62,90-6.8,12.78,25.87,19.15c10.95,2.14,27.98,19.96,33.72,29.48Z"/>
          <path class="cls-42" d="M56.1,86.1c-1.82,5.76-3.33,11.67-5,17.49-1.27,4.44-2.22,9.03-3.5,13.49-1.83-1.12-4.13-1.52-6-2.5-.06-.03-.05-.5-1-1,7.94-16.78,11.38-36.81,7.99-55.21-1.18-6.39-10.6-26.52-1.5-9.99,7,12.71,9.25,23.19,8.99,37.72Z"/>
        </g>
        <g>
          <path class="cls-30" d="M25.13,102.09c4.03,4.37,6.04,5.84,10.99,8.99,1.45.92,2.98,1.69,4.5,2.5.95.5.94.97,1,1l-1,5.5c-5.41-1.5-19.36-11.51-21.98-16.49-1.62-3.09-1.61-6.28-2.5-9.49-.46-1.65-.48-3.31-1-5,1.22-1.47,3.28,5.17,5.5,8.24,1.25,1.74,3.06,3.19,4.5,4.75Z"/>
          <path class="cls-13" d="M40.61,120.07c2.06.57,3.89.59,6,.5-1.32,4.49-3.02,8.89-4,13.49-6.98-4.14-11.16-7.88-16.49-13.99-.67-2.39-6.75-10-7.49-16.49,2.62,4.97,16.58,14.99,21.98,16.49Z"/>
          <path class="cls-13" d="M47.61,117.08c-.33,1.16-.66,2.34-1,3.5-2.11.09-3.93.07-6-.5l1-5.5c1.87.98,4.17,1.38,6,2.5Z"/>
        </g>
      </g>
      <path class="cls-22" d="M167.01,348.89c.35.59.64,1.6,1,2-.09,12.92.52,26.31-4.25,38.47l-.75-1c.59-11.23.75-24.81-.5-35.97-.12-1.07.97-.89-.5-2.5,1.58-.27,3.31-1.14,5-1Z"/>
      <g>
        <path class="cls-39" d="M98.57,343.9c.7.38,3.51,3.03,9.74,5.5,6.25,2.48,8.54,1.35,8.74,1.75,1.2,2.28-.18,47.98-1.5,51.46-2.09,5.51-11.75,7.11-16.99,7.74-.86-1.23-2.94.55-2.5-2,.16-.01.34.02.5,0,10.76-1.51,13.11-10.8,7.99-19.48-.03-.05.81-.28,0-1.25-2.94-3.52-9.67-1.87-12.99.75-.86-1.86-1.85-1.36-2.5-1.5-1.54-.33-7.78-1.03-8.49-1-.3-2.08-1.41-4.03-2-6-.33-1.11-.69-2.37-1-3.5-.68-2.46-1.39-5.03-2-7.49-.73-2.95-1.25-8.84-2-11.49,5.07-2.08,10.23-4.28,14.99-6.99,1.89-1.08,3.73-2.23,5.5-3.5,1.42-1.02,3.04-1.96,4-3.5.67.37.47.48.5.5Z"/>
        <path class="cls-23" d="M89.07,386.72c-7.15.47-17.97-.5-22.98,5.5h-1c3.5-4.57,9.95-6.26,15.49-6.49.72-.03,6.95.67,8.49,1Z"/>
        <path class="cls-48" d="M89.07,386.86c.64.14,1.63-.36,2.5,1.5-4.28,3.38-8.29,13.67-4,18.49-2.03,3.76-10.4-.09-13.99.5-5.01-5.79-2.19-10.68,1.25-16.49-8.58,5.28-2.02,14.16-11.74,7.99.13-1.22,2.21-5.55,3-6.49,5.02-6,15.83-5.03,22.98-5.5Z"/>
        <path class="cls-15" d="M88.58,401.85c.49,5.41,2.43,6.92,7.49,6.49-.45,2.54,1.64.77,2.5,2-6.33.77-13.16.76-19.48,0-1.57-.19-3.53-1.15-5-1.5.09-.52-.19-1.14-.5-1.5,3.58-.59,11.96,3.26,13.99-.5,1.54-1.91-2.63-5.15,1-5Z"/>
        <g>
          <path class="cls-28" d="M104.56,388.86c5.11,8.68,2.76,17.97-7.99,19.48-.55-1.21-2.02.34-2.5-1.25-.82-2.72,1.95-15.98,3.5-19.73,2.21-.26,5.15.09,6.99,1.5Z"/>
          <path class="cls-48" d="M97.57,387.36c-1.54,3.75-4.32,17.02-3.5,19.73.48,1.59,1.95.04,2.5,1.25-.16.02-.33-.01-.5,0-5.06.43-7-1.09-7.49-6.49-.53-5.79,2.48-13.72,8.99-14.49Z"/>
          <path class="cls-18" d="M104.56,388.86c-1.84-1.41-4.78-1.76-6.99-1.5-6.52.77-9.52,8.7-8.99,14.49-3.63-.16.54,3.09-1,5-4.29-4.81-.28-15.1,4-18.49,3.32-2.62,10.05-4.27,12.99-.75.81.97-.03,1.2,0,1.25Z"/>
        </g>
        <path class="cls-28" d="M73.59,407.35c.31.36.59.98.5,1.5-3.3-.78-11.97-.47-10.99-9.99,9.72,6.17,3.16-2.71,11.74-7.99-3.44,5.81-6.26,10.7-1.25,16.49Z"/>
      </g>
      <path class="cls-29" d="M165.51,71.61c-1.73.36-5.01-.36-6.74,0-19.1,3.91-26.88,37.16-25.23,53.46l-1,1.5c-3.15-16.19-2.04-26.92,4.5-42.22,1.71-4.01,5.45-9.03,6.99-12.24l.25,5.5c5.89-2.75,5.43-4.8,11.99-6.49.42-.11.09-.91.5-1,3.87-.8,12.89.64,8.74,1.5Z"/>
      <path class="cls-36" d="M110.06,77.11c7.2,20.95,10.49,28.21,3,52.96-4.88.67-9.13,3.72-13.49,6,11.81-10.74,12.67-.64,13.99-19.98,1.12-16.4-3.01-45.64-24.48-43.97,2.03-4.02,8.55-1.14,11.74.5,1.7.87,4.4,4.64,6.49,4,1.12-.35-2.1-2.83,2.75.5Z"/>
      <path class="cls-25" d="M203.98,128.57c1.22,8.44,1.73,16.96,2,25.48-3.01-.91,1.71-11.25-3.5-9.74,1.82,12.44-2.03,10.41-2.5,11.49-1.71,3.88-5.88,23.72-21.73,28.73-11.64,3.68-6.55-6.06-13.74-12.49-1.83-7.92-7.83-14.56-12.49-20.98l2-1c18.37,24.64,53.16.58,38.97-31.97,1.17-7.13-6.42-16.67-11.74-20.98-3.54-2.87-9.7-4.94-10.24-6.99.5-.79,1.42-3.99,2.5-5.5,10.09,3.84,13.49,4.66,20.48,14.74,6.56,9.45,8.38,18.07,9.99,29.23Z"/>
      <path class="cls-25" d="M165.51,71.61c.62-.05.47.49.5.5l-1,1c-4.77.23-8.39,4.67-11.49,7.74.65,1.38,11.7-4.95,14.49-4.25-2.92,4.98-16.52,18.22-25.48,37.22-2.8,5.93-1.68,13.2-8.99,11.74-.02-.16.02-.33,0-.5-1.65-16.3,6.13-49.55,25.23-53.46,1.74-.36,5.02.36,6.74,0Z"/>
      <path class="cls-53" d="M171.01,83.6c-.35.66-10.01,6.94-7.99,11.49-6.71,4.04-13.45,15.35-14.99,22.98-2.16,10.71-.79,22.87,6,31.97l-2,1c-3.08-4.25-6.27-8.6-9.49-12.74-3.79-4.87-8.1-5.67-8.99-12.74,7.31,1.46,6.2-5.81,8.99-11.74,8.96-19,22.56-32.24,25.48-37.22,1.24-2.12,2.79-3.77-3-3.5l1-1c6.26,1.55,7.01,7.69,5,11.49Z"/>
      <path class="cls-29" d="M173.51,84.6c-1.08,1.5-2,4.7-2.5,5.5-.64,1.02-1.55,2.99-2.5,3.5-.5.27-3.18.11-5.5,1.5-2.01-4.55,7.65-10.83,7.99-11.49,1.65-.25,2.37.95,2.5,1Z"/>
      <path class="cls-25" d="M79.58,83.1c1.72,2.01,1.94,3.61,2.5,6-13.57,2.41-24.37,15.76-26.48,28.98-2.48,15.52,1.65,41.68,22.98,30.98-7.52,7.8-13.1,17.43-12.49,28.48-11.87-2.53-18.33-19.1-19.48-29.73-.76-7.06,1.77-12.8-1-11.74.05-.15-.05-.35,0-.5,3.29-10.76,8.8-21.16,10.49-32.47.83-1.3,1.65-2.77,2.5-4,4.17-6.02,8.47-11.59,15.24-14.99,1.34-.67,5.07-.72,5.75-1Z"/>
      <path class="cls-25" d="M113.56,116.08c-1.17-3.45-1.4,1.37-4,5-1.57-3.84-5.1-9.05-6.49-11.99-2.14-4.5-2.98-8.8-6-12.99.23-4.86-5.65-12.51-7.49-17.49-1.2-3.25-2.53-4.88-.5-6.49,21.47-1.67,25.6,27.57,24.48,43.97Z"/>
      <path class="cls-53" d="M97.07,96.09c-1.01-1.41-7.41-8.04-9.49-8.99-.95-1.71-3.94-3.82-5-6,2.32-.92,4.55-1.9,6.99-2.5,1.84,4.98,7.72,12.62,7.49,17.49Z"/>
      <path class="cls-29" d="M82.58,81.11c1.06,2.17,4.04,4.28,5,6,1.88,3.38,1.24,4.63-2.5,4.5-3.67-.13-2.43-.08-3-2.5-.55-2.39-.78-3.99-2.5-6,.18-.08-1.13-.37,3-2Z"/>
      <path class="cls-53" d="M205.98,154.05c.07,2.33-.08,4.67,0,6.99-2.84,4.62-3.8,10.13-6,14.99-8.89,11.37-20.19,17.23-34.47,18.98.22-2.55.42-8.83-1-9.99,1.54-4.32.99-8.69,0-12.99,7.19,6.43,2.1,16.17,13.74,12.49,15.85-5.01,20.03-24.84,21.73-28.73.47-1.08,4.31.95,2.5-11.49,5.21-1.51.49,8.84,3.5,9.74Z"/>
      <path class="cls-45" d="M206.48,162.04c-2.21,9.05-2.36,25.11-14.49,36.47-4.12,3.86-14.51,9.01-19.98,10.99-3.1,1.12-10.12,3.55-12.99,3.5-12.03-.24-.06-3.54,3-7.49,19.55-3.81,29.81-11.37,37.97-29.48,2.19-4.86,3.15-10.37,6-14.99.02.56-.15,1.04.5,1Z"/>
      <path class="cls-46" d="M45.61,135.56c-.97-.54-2.04-.93-3-1.5.97-4.6,2.67-9,4-13.49.34-1.16.67-2.33,1-3.5,1.28-4.46,2.22-9.05,3.5-13.49,2.35-.07-.67,2.64,1.75,4.5,2.4-1.42,1.84-2.79,3.25-5-1.69,11.31-7.2,21.71-10.49,32.47Z"/>
      <g>
        <path class="cls-28" d="M171.51,395.86c-.92,5.6-1.85,15.02,6.25,14.99.75-7.24,1.37-1.16,1.75-.75,1.9,2.03,5.59,1.44,7.99.25.27,1.09,1.4,2.5,2,3.5-6.04,4.32-22.9-.01-25.98-7.49,4.8-2.16,4.05-7.69,7.99-10.49Z"/>
        <g>
          <path class="cls-18" d="M213.48,406.35c-.04.25.95,2.19-1.75,4.5-3.11,2.66-19.02,5.84-21.73,2.5-1.07-1.59-.82-3.26-1-5,3.52,3,2.18,1.14,4.25-1.5,1.26,4.78,3.4,7.01,4.5,1,.77-.48.78,6.57,7.24,1.75,1.79-5.37-3.94-16.06-2.75-16.74,10.06,10.53,3.38,21.25,11.24,13.49Z"/>
          <path class="cls-15" d="M189,408.35c.18,1.74-.07,3.41,1,5,.05.61-.44.46-.5.5-.6-1-1.72-2.41-2-3.5-1.47-5.8.45-12.42,3-17.74,3.3-2.23-1.19,3.49-1.5,5.5-.2,1.32-.17,8.58,0,10.24Z"/>
        </g>
        <g>
          <path class="cls-48" d="M182.5,358.39c10.49,3.69,18.21,5.23,29.48,4.5-1.05,5.31-4.06,26.26-4,27.73.1,2.17,2.44,2.6,3,3.75.71,1.46,2.88,5.43,3,6,.4,1.93-.17,4.1-.5,6-7.87,7.76-1.18-2.96-11.24-13.49-1.19.68,4.54,11.37,2.75,16.74-6.47,4.82-6.48-2.23-7.24-1.75-1.1,6.01-3.23,3.78-4.5-1-2.07,2.64-.73,4.5-4.25,1.5-.17-1.66-.2-8.93,0-10.24.31-2,4.8-7.73,1.5-5.5-2.55,5.31-4.47,11.94-3,17.74-2.4,1.19-6.09,1.78-7.99-.25-.38-.41-1-6.49-1.75.75-8.09.03-7.16-9.39-6.25-14.99,1.91-11.63,6.5-6.44,8.24-7.49,1.15-.69.93-25.4.75-26.73-.04-.3-1.64-3.9-2.5-4.75,1.33.58,3.07,1,4.5,1.5Z"/>
          <path class="cls-48" d="M178,356.89c.86.85,2.46,4.45,2.5,4.75.18,1.33.4,26.04-.75,26.73-1.75,1.05-6.33-4.14-8.24,7.49-3.94,2.81-3.2,8.34-7.99,10.49-1.27-3.09-1.58-4.51-.5-7.74.62-1.86,5.75-8.61,7.49-9.74.35-.23,2.07.35,2.5-.25.99-1.4-.59-29.99-.5-34.22,1.09.65,4.13,1.91,5.5,2.5Z"/>
          <path class="cls-28" d="M170.51,352.39c.2.15.91,1.35,2,2-.09,4.23,1.49,32.83.5,34.22-.42.6-2.14.02-2.5.25.06-1.54-.23-.67-1.25-.5-11.16,12.5-7.25,19.12-6.25,0l.75,1c4.76-12.16,4.16-25.55,4.25-38.47,1.37,1.51,2.38,1.41,2.5,1.5Z"/>
          <path class="cls-15" d="M211.48,393.69s-.42.74-.5,1c-.56-1.14-2.9-1.57-3-3.75-.07-1.46,2.95-22.42,4-27.73h.5c-.49,4.93-2.99,28.04-2.5,29.73.12.42.96.91,1.5.75Z"/>
        </g>
      </g>
      <g>
        <path class="cls-43" d="M250.95,385.37c1.37,1.81.61,3.81.5,6-.32,6.2-.31,6.85-5,10.99-1.21-.29-2,.7-3,1,.07-.43,1.86-2.41,2-2.5.21-.13.42.58,2-1,4.52-4.52,3.75-14.27.5-13.49-.12-2.3-.77-1.23-1-1.5-.06-.06.03-.59,0-1,1.35.3,2.77.83,4,1.5Z"/>
        <path class="cls-28" d="M228.46,383.37c10.93,1.75,5.37-1.77,4.5,15.49-1.82.06-4.17.08-6,0-5.32-.07-3.47-10.45-3-15.99,1.56.62,2.97.25,4.5.5Z"/>
        <path class="cls-23" d="M246.95,384.22c.03.41-.06.93,0,1h-1.5c-6.72,0-8.3-.58-6.99,13.99-2.09.22-3.6-.07-5.5,0,.88-17.25,6.43-13.73-4.5-15.49,2.77-.86,15.65-.14,18.49.5Z"/>
        <path class="cls-15" d="M223.97,382.87c-.48,5.54-2.32,15.92,3,15.99-.64-.03-2.78.99-4.5.5-4.17-1.19-1.49-11.35-3-14.49,1.12-1.06,2.24-2.1,3.5-3,.32,1.5.18.68,1,1Z"/>
        <path class="cls-50" d="M222.47,399.35l-.5,1.5c-2.69-.11-5.29-.62-7.99-.5-.12-.56-2.29-4.53-3-6,.08-.26.46-.96.5-1,2.73-2.8,5.14-5.79,7.99-8.49,1.5,3.13-1.17,13.3,3,14.49Z"/>
        <path class="cls-18" d="M246.45,398.21c.31.74-.66,2.31,1,2-1.58,1.58-1.79.87-2,1-7.79,1-15.69.31-23.48,0l.5-1.5c1.83.52,4.12-.66,4.6-.48.86.32,1.7.68,2.59.46,3.83-.96,5.65-.15,8.8-.48,1.3-.14,5.16.24,6-.75.66-.78.7-10.94,1-13.24h.5c.6,4.23-.87,10.83-.5,12.74.08.42.98.2,1,.25Z"/>
        <path class="cls-28" d="M247.45,399.85c-1.66.31-.69-1.26-1-2,1-2.26,1.62-9.21,1.5-11.49,3.25-.78,4.02,8.97-.5,13.49Z"/>
        <path class="cls-48" d="M246.95,385.22c.23.27.88-.8,1,1.5.12,2.28-.5,9.23-1.5,11.49-.02-.05-.92.18-1-.25-.37-1.91,1.1-8.51.5-12.74h1Z"/>
        <path class="cls-48" d="M245.45,384.87c-.3,2.3-.34,12.46-1,13.24-.84.99-4.69.61-6,.75-1.3-14.57.28-13.99,6.99-13.99Z"/>
      </g>
      <g>
        <path class="cls-41" d="M256.44,201.01c6.32,17.04,5.2,33.89-2,50.46-.34.73-.64,1.29-1,2-6.1,4.24-1.44-2.35-4-9.49-.63-1.75-1.37-3.49-3.5-4,.17-10.61,3.57-21.32,3-32.22-.39-7.46-3.43-13.99-4.5-21.23,5.47,4.45,8.82,8.13,11.99,14.49Z"/>
        <path class="cls-28" d="M244.45,186.52c1.07,7.24,4.1,13.78,4.5,21.23.58,10.9-2.83,21.62-3,32.22-1.08-.26-3.15.18-4.5,0,4.81-12.29,7.36-43.65,1-54.96.7.42,1.37.99,2,1.5Z"/>
        <path class="cls-28" d="M254.44,251.47c7.2-16.58,8.32-33.42,2-50.46,8.61,17.29,5.83,33.8-2,50.46Z"/>
      </g>
      <g>
        <path class="cls-51" d="M285.92,41.14c-2.93,13.51-11.32,32.49-16.49,45.96-2.17,2.61-3.52,5.69-5.5,8.49l-.25-1c-3.2,4.8-12.89,12.27-18.24,11.49.17-.3.33-.69.5-1,3.68-6.58,7.39-15,10.49-21.98,5.8-13.04,23.87-52.99,15.99-65.2-8.24-12.77-41.53,9.09-51.96,24.23-8.06,4.07-16.34,13.51-24.48,15.49,2.51-3.01,19.36-24.46,19.98-25.98,23.56-29.33,84.47-57.36,69.94,9.49Z"/>
        <path class="cls-30" d="M269.43,87.1c-.17.46-.31,1.01-.5,1.5-.86,2.28-.79,5.52-2.5,9.49-8.4,19.51-25.14,24.78-41.97,33.97.16-5.01,3.75-6.11,3.5-11.99,3.92-1.64,10.76-4.08,13.49-6.99,9.34-2.5,17-9.68,22.48-17.49,1.97-2.81,3.33-5.88,5.5-8.49Z"/>
        <path class="cls-5" d="M220.47,42.14c-9,13.06-10.32,27.63-7.99,42.97.45,2.98.96,4.74,1,5-.45,5.41.6,28,0,29.73-.13.38-.65.25-1,.25-.8-8.77-5.96-48.37-10.24-53.46-.35-.41-7.79-4.65-9.24-5.5.91-1.24,2.01-2.31,3-3.5,8.14-1.98,16.42-11.42,24.48-15.49Z"/>
        <path class="cls-21" d="M263.94,95.59c-5.48,7.81-13.14,14.98-22.48,17.49,1.29-1.38,2.89-5.08,4-6.99,5.34.78,15.04-6.69,18.24-11.49l.25,1Z"/>
        <path class="cls-13" d="M214.98,93.1c.58,3.86.38,8.89,1,12.74,1.04,6.45,2.66,12.73,3.5,19.23,1.52,11.82-2.01,10.82,5,6.99,16.82-9.19,33.57-14.46,41.97-33.97-.51,3.7-1.99,7.59-3.5,10.99-10.07,22.69-26.87,27.48-40.47,36.47-1.98-1.29-8.35.15-8.99-.75-.72-1.01-.08-14.71-1-24.73.35,0,.87.13,1-.25.6-1.73-.45-24.32,0-29.73.02.17,1.24,1.31,1.5,3Z"/>
        <g>
          <path class="cls-6" d="M256.44,83.1c-.66-.26-2.34-1.17-2.5-1.75-1.56-5.84-1.68-33.66-3.5-43.47-.53-2.83-1.41-5.67-2.75-8.24-6.16,2.57-9.74,7.17-10.99,7.99-.46.31-.95-.53-1-.5-12.1,8.17-16.29,11.89-20.23,26.48-1.99,7.37-2.76,13.84-3,21.48-2.33-15.33-1-29.91,7.99-42.97,10.43-15.14,43.72-37,51.96-24.23,7.88,12.21-10.19,52.16-15.99,65.2Z"/>
          <path class="cls-27" d="M256.44,83.1c-3.1,6.98-6.81,15.4-10.49,21.98-17.84-12.15-7.94-45.81-10.99-60.2-.13-.6-1.44-.77-1.5-1-.14-.53,2.79-5.98-3,3.75-.8,1.34-2.39,3.79-2.5,4-4.87,1.61-7.6,10.65-12.49,11.99,3.95-14.59,8.14-18.31,20.23-26.48.05-.03.54.8,1,.5,1.25-.82,4.83-5.42,10.99-7.99,1.34,2.58,2.22,5.41,2.75,8.24,1.82,9.8,1.94,37.63,3.5,43.47.16.58,1.84,1.48,2.5,1.75Z"/>
          <path class="cls-2" d="M245.95,105.09c-.17.3-.33.7-.5,1-1.1,1.91-2.71,5.62-4,6.99-18.14-21.55-11.71-38.33-14.49-46.21-.14-.39-.67-.25-1-.25,1.95-10.69,5.41-17.28,5.5-18.24.08-.82-.28-.84-1-.75,5.78-9.73,2.86-4.28,3-3.75.06.23,1.37.39,1.5,1,3.05,14.39-6.85,48.05,10.99,60.2Z"/>
          <path class="cls-42" d="M225.97,66.62c-5.66,30.99,1.67,45.87,2,53.46.26,5.88-3.33,6.98-3.5,11.99-7.01,3.83-3.47,4.83-5-6.99,1.21-.17,3.79-1.54,4-2.75.19-1.08-4.08-17.93-4.5-21.48-1.11-9.46.47-22.14-2-17.24,1.72-9.63,6.46-23.3,10.99-31.97.11-.21,1.7-2.66,2.5-4,.72-.09,1.08-.08,1,.75-.09.95-3.54,7.54-5.5,18.24Z"/>
          <path class="cls-20" d="M241.45,113.08c-2.73,2.91-9.57,5.36-13.49,6.99-.33-7.59-7.66-22.47-2-53.46.33,0,.86-.14,1,.25,2.78,7.89-3.65,24.67,14.49,46.21Z"/>
          <path class="cls-2" d="M216.97,83.6c-.63,3.54-.43,8.79-2,9.49-.25-1.69-1.47-2.83-1.5-3-.04-.25-.55-2.02-1-5,.24-7.64,1-14.11,3-21.48,4.89-1.34,7.62-10.38,12.49-11.99-4.53,8.68-9.27,22.34-10.99,31.97Z"/>
          <path class="cls-20" d="M219.47,125.07c-.84-6.51-2.45-12.78-3.5-19.23-.62-3.85-.42-8.88-1-12.74,1.57-.7,1.37-5.95,2-9.49,2.46-4.9.88,7.77,2,17.24.42,3.55,4.69,20.4,4.5,21.48-.21,1.21-2.79,2.58-4,2.75Z"/>
        </g>
      </g>
      <path class="cls-36" d="M220.47,326.41c-4.41.53-6.84,5.66-12.99,1.5-4.56-3.09-11.44-20.69-11.99-26.23-1.35-13.64,5.3-20.72,7.49-26.73,7.45,1.15,10.2-.06,13.49,7.24,5.13,11.4,5.3,31.87,4,44.22Z"/>
      <path class="cls-43" d="M245.95,239.98c2.13.51,2.87,2.25,3.5,4-4.67,4.17-6.23,1.85-8.49-3,.16-.37.35-.63.5-1,1.35.18,3.41-.26,4.5,0Z"/>
      <path class="cls-46" d="M202.49,227.49c1.6,3.38,2.76,3.8-1,6.49-1.01-3.54-1.79-7.19-3.5-10.49.88-.21.94-.72,1-1.5,1.32,1.66,2.59,3.59,3.5,5.5Z"/>
      <path class="cls-30" d="M51.1,179.03c5.21,6.21,11.23,10.08,18.74,12.99l.25-2c2.7,5.94,4.73,10.64,10.49,14.49-.04.4-.34.57-.5,1-2.54-1.08-10.47-2.78-10.99-3-6.46-2.72-13.49-9.09-18.49-13.99-10.8-16-11.29-31.21-6-49.46-1.3,16.91-5.21,26.02,6.49,39.97Z"/>
      <path class="cls-53" d="M66.09,177.53c.07,1.23.29,3.33.5,4.5-4.94-1.46-10.64-2.85-15.49-3-11.71-13.95-7.79-23.06-6.49-39.97.3-1.03.69-1.99,1-3,2.77-1.06.23,4.68,1,11.74,1.15,10.63,7.61,27.2,19.48,29.73Z"/>
      <g>
        <g>
          <path class="cls-44" d="M161.02,352.89c.13,16.72.6,33.23-2.5,49.71-1.83,2.04-1.36-.67-1.75-.75-1.69-.32-10.16,0-13.74,0-.95-10.46,2.09-12.95,10.49-17.49.3-.16.7.53.75.5,5.42-3.32-6.88-1.57-16.24-2.5-.48-.02-.53-.49-1-.5q-3-8.99-6-17.99c1.75-.3,12.94-7.33,14.99-9.49,4.13-.05,11.02-.63,14.99-1.5Z"/>
          <path class="cls-13" d="M146.03,354.39c-2.05,2.16-13.24,9.19-14.99,9.49-.16.03-.34-.02-.5,0-.57-2.37-2.39-9.13-3.5-10.49,6.37-.11,12.6,1.08,18.98,1Z"/>
        </g>
        <g>
          <path class="cls-15" d="M140.53,385.86c.01.08,1.13-.6,1,1.25-.03.42-1.74.97-1.5,7.74-4.28,2.06-6.31,5-11.49,5-.03-.05-.79-.45-1-.5-.96-3.84,0-2.76.5-4.5,2.15-7.33,4.67-10.1,12.49-8.99Z"/>
          <path class="cls-23" d="M153.52,384.37c-8.4,4.54-11.44,7.02-10.49,17.49-.48,0-.53-.5-1-.5-1.12-1.9-1.92-4.3-2-6.49-.24-6.77,1.47-7.33,1.5-7.74.13-1.85-.99-1.17-1-1.25-.16-1.21.51-1.54.5-2.5,4.13.19,8.41.35,12.49,1Z"/>
          <path class="cls-43" d="M142.03,401.35c-8.46.02-9.86,4-13.49-1.5,5.18,0,7.21-2.94,11.49-5,.08,2.2.88,4.59,2,6.49Z"/>
          <path class="cls-49" d="M138.04,382.37c.16,0-.17.85,3,1,0,.96-.66,1.29-.5,2.5-7.82-1.11-10.34,1.66-12.49,8.99-1.02-5.82,5.96-9.55,3.5-10.49.77-.44,5.19-2.5,5.5-2.5.47,0,.52.48,1,.5Z"/>
          <path class="cls-15" d="M153.52,384.37c-4.08-.65-8.36-.81-12.49-1-3.17-.15-2.84-.99-3-1,9.35.92,21.65-.82,16.24,2.5-.05.03-.45-.66-.75-.5Z"/>
        </g>
      </g>
      <g>
        <path class="cls-13" d="M214.48,353.22c.15,1.73-.6,8.45-1.5,9.49l-.5.5h-.5c-11.27.73-18.98-.81-29.48-4.5,3.9-2.55,13.01,3.2,22.73,0,6.86-2.26,5.61-7.78,4.75-13.49,1.82,2.41,4.25,5.1,4.5,7.99Z"/>
        <path class="cls-30" d="M220.47,326.41c-.28,2.65-.45,5.38-1,7.99-.3,1.41-2.8,10.69-3.75,10.99-11.05-10.21-7.05-9.1-5.75-.5.86,5.7,2.11,11.23-4.75,13.49-9.72,3.2-18.83-2.55-22.73,0-1.43-.5-3.16-.92-4.5-1.5-1.37-.59-4.4-1.85-5.5-2.5-1.09-.65-1.8-1.84-2-2q6.25-9.99,12.49-19.98c12.26,5.84,15.87,7.64,24.48-4.5,6.15,4.16,8.58-.96,12.99-1.5Z"/>
        <path class="cls-13" d="M183,332.41q-6.25,9.99-12.49,19.98c-.12-.09-1.13.01-2.5-1.5-.36-.39-.65-1.41-1-2-.32-.54-.77-.92-1-1.5,1.95-1.15,11.19-13.45,12.49-16.99.29.17.7-.53.75-.5,1.05.6,2.54,1.93,3.75,2.5Z"/>
      </g>
      <path class="cls-40" d="M97.16,96.09c3.01,4.19,3.86,8.49,6,12.99-2.44,5.46-1.52,11-3,17.24,3.98,2.15,7.37-2.29,9.49-5.25,2.6-3.63,2.83-8.44,4-5-1.32,19.35-2.18,9.24-13.99,19.98-.2.1-2.26,1.86-2.5,2-1.26.71-2.76,1.23-4,2-1.07-1.38.25-2.66,1-4,10.99-19.59,1.38-41-8.99-43.47v-1c3.73.14,4.38-1.11,2.5-4.5,2.08.95,8.48,7.58,9.49,8.99Z"/>
      <path class="cls-5" d="M192.99,118.08c-.42-.95-1.45-1.4-1.5-1.5-3.16-6.33-7.85-13.95-13.74-17.99-3.67-2.52-8.74-3.54-9.24-5,.95-.51,1.86-2.48,2.5-3.5.55,2.05,6.71,4.13,10.24,6.99,5.32,4.31,12.91,13.85,11.74,20.98Z"/>
      <path class="cls-9" d="M165.01,73.11c5.79-.27,4.24,1.37,3,3.5-2.79-.71-13.84,5.62-14.49,4.25,3.1-3.07,6.72-7.52,11.49-7.74Z"/>
      <path class="cls-30" d="M82.17,89.24c.56,2.42-.68,2.36,3,2.5v1c-10.7-2.54-25.51,13.63-27.48,25.48h-2c2.11-13.22,12.91-26.57,26.48-28.98Z"/>
      <path class="cls-25" d="M109.56,121.07c-2.12,2.96-5.51,7.39-9.49,5.25,1.48-6.24.56-11.77,3-17.24,1.4,2.94,4.92,8.15,6.49,11.99Z"/>
      <path class="cls-5" d="M199.99,176.03c-8.16,18.1-18.42,25.67-37.97,29.48,2.32-2.99,3.19-6.95,3.5-10.49,14.29-1.75,25.58-7.62,34.47-18.98Z"/>
      <g>
        <path class="cls-5" d="M202.49,251.97c1.2,1.04,1.55,3.46,3.5,3,1.06,8.8.09,11.51-3,19.98-2.19,6.01-8.85,13.09-7.49,26.73.55,5.54,7.43,23.14,11.99,26.23-8.62,12.13-12.22,10.33-24.48,4.5-1.2-.57-2.69-1.9-3.75-2.5-.05-.03-.46.67-.75.5-6.98-4.08-15.69-12.85-21.48-18.74l.75-1.25c10.23-1.06,13.25-13.75,7.74-21.23-3.41-4.64-8.79-4.46-9.24-4.75-.5-.32-4.78-8.49-6.74-9.74,11.33-7.37,5.59-19.68,6-21.48.17-.75,5.94-4.98,6.49-7.49.37-1.67-.39-7.28,0-7.99.4-.73,10.95,3.48,11.99-7.74,9.26,7.51,19.48,14.18,28.48,21.98Z"/>
        <path class="cls-13" d="M184,222.99c1.19,1.89,5.51,3.45,9.24,6.49,3.43,2.8,4.9,8.15,8.74,6.49,1.54,5.72,3.3,13.18,4,18.98-1.95.46-2.29-1.95-3.5-3-2.87-11.08-18.49-22.6-28.98-26.98-.03-.33.04-.67,0-1,3.42-.79,7.04-.55,10.49-1Z"/>
        <path class="cls-13" d="M197.99,223.49c1.71,3.3,2.49,6.95,3.5,10.49.19.69.32,1.34.5,2-3.84,1.66-5.32-3.7-8.74-6.49-3.74-3.05-8.05-4.6-9.24-6.49,3-.39,12.13-2.71,12.74-2.5.42.15,1.01,2.53,1.25,3Z"/>
        <path class="cls-33" d="M198.99,216.5c.17.39,2.1,2.52,2,2.75-.45,1.04-1.69-1.53-2,2.75-.06.78-.12,1.29-1,1.5-.24-.47-.83-2.85-1.25-3-.61-.21-9.74,2.1-12.74,2.5-3.46.45-7.07.21-10.49,1-.37-3.12-1.33-6.41-2-9.49.02-.03.25.19.5-.5,7.09-.72,18.76-8.96,19.73-8.49,1.12.54,3.66,14.89,7.24,10.99Z"/>
        <path class="cls-46" d="M198.99,216.5c-3.58,3.9-6.12-10.45-7.24-10.99-.97-.47-12.64,7.77-19.73,8.49.26-.73-.18-3.15,0-4.5,5.47-1.98,15.86-7.13,19.98-10.99,4.26,4.96,4.14,11.43,6.99,17.99Z"/>
        <path class="cls-30" d="M202.49,251.97c-9-7.8-19.22-14.47-28.48-21.98.16-1.72-.37-3.3-.5-5,10.49,4.38,26.11,15.9,28.98,26.98Z"/>
      </g>
      <g>
        <path class="cls-5" d="M73.09,231.49c.12.17,2.02,2.08,2.5,2-.45,4.09-2.03,10.45,2.25,5,2.53-.4-.35,1.21-.75,6-.18,2.11-.01,4.44.5,6.49,1.49,5.98,6.05,6.41,5.5,11.74-.39,3.7-13.11,15.14-5,26.98,5.63,8.2,12.72,2.81,13.49,2.75.33-.03.67.01,1,0-3.1,6.31-6.3,8.22-6,18.74.03.91,5.28,6.33-9.99,11.74-.5.18-2.57,0-4,1-4.2-4.53-8.08-8.81-11.49-13.99-.5-2.3-3.13-8.26-4-16.24-1.49-13.8-.18-27.77,1.5-41.47.38-3.08,2.02-6.96,2.5-9.99.15-.93-.9-9.98,3-18.24.3.56,7.55,10.46,8.99,7.49Z"/>
        <path class="cls-13" d="M79.58,219c-2.18,5.04-3.39,9.02-4,14.49-.48.08-2.38-1.83-2.5-2-2.4-3.41-3.87-8.24-5.75-11.99-.79-.35-2.36,3.96-3.75,3-.92-4.07,2.57-4.29,3-5.25.24-.55.2-5.26.5-6.74,3.53.5,8.64,5.88,12.49,8.49Z"/>
        <path class="cls-33" d="M80.08,205.51c-.87,2.41-2.08,4.85-2,7.49-.33-.17-1.43.18-1.75,0-2.98-1.67-5.35-4.48-8.74-5.5.3-1.62,1.06-3.39,1.5-5,.53.22,8.45,1.92,10.99,3Z"/>
        <path class="cls-33" d="M78.08,213c.19.1,1.34,1.69,3.5,2.5-.62,1.17-1.92,3.31-2,3.5-3.85-2.61-8.96-8-12.49-8.49.2-1.01.32-2,.5-3,3.39,1.02,5.76,3.82,8.74,5.5.31.18,1.41-.17,1.75,0Z"/>
        <path class="cls-30" d="M73.09,231.49c-1.44,2.96-8.69-6.93-8.99-7.49-.04-.07-.45-1.28-.5-1.5,1.38.96,2.95-3.35,3.75-3,1.88,3.75,3.34,8.58,5.75,11.99Z"/>
        <path class="cls-29" d="M86.08,207.51c-1.11,2.88-3.07,5.31-4.5,7.99-2.15-.81-3.31-2.4-3.5-2.5-.08-2.65,1.12-5.09,2-7.49.16-.43.46-.6.5-1,.26.17,5.18,3,5.5,3Z"/>
      </g>
      <g>
        <path class="cls-48" d="M138.54,350.89c8.84.63,14.67.5,23.48-1,1.47,1.61.38,1.42.5,2.5-.72-.23-.95.38-1.5.5-3.97.87-10.85,1.45-14.99,1.5-6.39.08-12.61-1.11-18.98-1-2.25-2.76-7.59-1.37-7.99-1.5-.09-.03.38-.97-1.25-1.5-6.47-2.08-12.96-3.82-19.23-6.49-.03-.02.17-.13-.5-.5-4.24-2.35-7.94-4.04-11.99-6.99l2-3c14.18,9.94,33.23,16.26,50.46,17.49Z"/>
        <path class="cls-41" d="M76.58,322.91c2.92,4.29,7.28,7.54,11.49,10.49l-2,3c-4.48-3.26-8.67-7.01-12.49-10.99-.28-.29-.72-1.2-1-1.5,1.42-1,3.49-.82,4-1Z"/>
        <path class="cls-47" d="M172.01,214c-.24.69-.48.47-.5.5-4.43,4.84-49.61,6.21-65.2,3-2.41-.5-3.61-2.68-8.49-2l.75-2c18.08,5.67,39.73,5.27,57.95.5.76-.2,2.01-.28,2.5-1,2.87.06,9.89-2.38,12.99-3.5-.18,1.35.26,3.76,0,4.5Z"/>
        <g>
          <path class="cls-37" d="M98.57,213.5l-.75,2c4.88-.68,6.09,1.5,8.49,2,15.59,3.22,60.77,1.85,65.2-3,.67,3.08,1.63,6.37,2,9.49.04.33-.03.67,0,1,.13,1.69.66,3.28.5,5-1.05,11.22-11.59,7.01-11.99,7.74-.39.72.37,6.32,0,7.99-.55,2.51-6.32,6.74-6.49,7.49-.41,1.8,5.33,14.12-6,21.48,1.97,1.25,6.24,9.42,6.74,9.74.45.29,5.83.11,9.24,4.75,5.5,7.48,2.48,20.17-7.74,21.23l-.75,1.25c5.79,5.89,14.51,14.65,21.48,18.74-1.3,3.54-10.54,15.84-12.49,16.99-5.6,3.29-20.84,2.43-27.48,3.5-17.23-1.22-36.28-7.54-50.46-17.49-4.22-2.96-8.57-6.2-11.49-10.49,15.27-5.41,10.02-10.83,9.99-11.74-.3-10.52,2.9-12.42,6-18.74,2.77-5.65-3.51,2.74-10.49-7.24-2.17-10.51-2.78,3.61,3.25,5.75,3.4,1.21,7.72-.45,6.25,1.5-.77.07-7.86,5.45-13.49-2.75-8.12-11.84,4.61-23.28,5-26.98.56-5.33-4.01-5.76-5.5-11.74,12.82,13.94,6.37,2.79-.5-6.49.4-4.79,3.28-6.4.75-6-4.28,5.45-2.7-.91-2.25-5,.61-5.47,1.81-9.45,4-14.49.08-.18,1.38-2.33,2-3.5,1.43-2.68,3.39-5.12,4.5-7.99.17,0,.33,0,.5,0,2.92,2.86,8.09,4.77,11.99,6Z"/>
          <path class="cls-7" d="M166.01,347.4c.23.58.68.95,1,1.5-1.69-.15-3.41.73-5,1-8.81,1.5-14.64,1.63-23.48,1,6.64-1.07,21.88-.2,27.48-3.5Z"/>
          <path class="cls-48" d="M77.58,250.97c-.51-2.06-.67-4.39-.5-6.49,6.87,9.29,13.32,20.43.5,6.49Z"/>
          <path class="cls-4" d="M92.57,292.44c-.33.01-.67-.03-1,0,1.47-1.95-2.84-.29-6.25-1.5-6.02-2.14-5.42-16.26-3.25-5.75,6.98,9.99,13.26,1.6,10.49,7.24Z"/>
          <path class="cls-28" d="M153.27,261.96c2.14,8.94-19.22,18.08-1.25,4.25l1.25-4.25Z"/>
        </g>
      </g>
      <path class="cls-53" d="M66.59,182.03c.45,2.44,2.02,5.21,3,7.49.01.03.18-.21.5.5l-.25,2c-7.51-2.91-13.52-6.78-18.74-12.99,4.85.15,10.55,1.53,15.49,3Z"/>
      <g>
        <g>
          <path class="cls-41" d="M118.55,41.64c12.16-.29,12.8,1.41,13.49,1.5,2.37,4.29,2.33-1.06,7.49-1,1.14-.05,2.36-.07,3.5,0,17.74.69,5.37,20.89,1,29.98-1.55,3.21-5.28,8.23-6.99,12.24-6.53,15.3-7.65,26.02-4.5,42.22.39,1.99.64,4,1,6-.71-.32-1.19.52-1.25.5-6.14-2.33-12.63-3.9-19.23-3,7.49-24.75,4.21-32.01-3-52.96-4.74-13.79-16.25-34.42,8.49-35.47Z"/>
          <path class="cls-52" d="M139.53,42.14c-5.16-.06-5.13,5.29-7.49,1,2.57.32,1.88-.73,7.49-1Z"/>
        </g>
        <g>
          <path class="cls-22" d="M133.54,132.72c1.94.87,4.06,3.67,5.5,5-.55,3.79-.77,7.73-1.5,11.49-4.17-10.93-29.59-15.89-39.47-10.99h-1c.24-.13,2.3-1.89,2.5-2,4.36-2.27,8.61-5.33,13.49-6,6.61-.91,13.09.67,19.23,3,.06.02.54-.82,1.25-.5Z"/>
          <path class="cls-21" d="M133.54,125.57c.89,7.07,5.2,7.87,8.99,12.74,3.22,4.14,6.41,8.49,9.49,12.74,4.66,6.43,10.66,13.06,12.49,20.98.99,4.3,1.54,8.67,0,12.99-2.13,5.95-12.14,11.35-17.99,12.49l-.5-1.5c5.63-1.18,11.16-3.71,14.49-8.49,3.3-4.75,4.01-7.65,3-13.49-1.54-8.86-17.53-30.03-24.48-36.47-1.43-1.33-3.56-4.13-5.5-5-.36-1.99-.61-4.01-1-6l1-1.5c.02.16-.02.34,0,.5Z"/>
          <path class="cls-23" d="M165.51,195.02c-.31,3.55-1.18,7.5-3.5,10.49-3.06,3.96-15.03,7.26-3,7.49-.48.72-1.74.8-2.5,1-5.9-1.71-17.34,1.36-24.73,1.5-3.41.06-7.3-.27-10.74-.5.95-.56,18.13-.93,14.24-3.5-6.34.88-10.68-.93-11.49-1-6.28-.55-13.68.22-19.98-1.5-4.34-1.18-15.24-10.11-12.24-10.49,3.03,2.66,5.73,6.16,9.99,6.99,9.01,4.81,26.53.56,32.97-6.99,3.91-.4,8.18-.25,11.99-1,5.84-1.14,15.86-6.54,17.99-12.49,1.42,1.16,1.22,7.44,1,9.99Z"/>
          <path class="cls-28" d="M117.05,179.03c7.98,7.86,27.92,12.76,37.97,7.49.51,2.16,3.68-.37,5.5,1-3.33,4.79-8.86,7.31-14.49,8.49-15.23,3.2-30.55-3.67-35.47-18.98,1.45-.14,2.63-.65,4-1,.03,1.55,1.61,2.13,2.5,3Z"/>
          <path class="cls-32" d="M163.52,174.03c1.01,5.84.3,8.74-3,13.49-1.82-1.37-4.99,1.17-5.5-1,5.55-2.91,6-8.54,8.49-12.49Z"/>
          <path class="cls-18" d="M76.58,192.02c5.78,1.72,9.03,1.16,11.49,2.5,1.79.97,2.16,2.82,3.5,4-3,.39,7.9,9.31,12.24,10.49,6.31,1.72,13.71.94,19.98,1.5.81.07,5.15,1.88,11.49,1,3.89,2.56-13.29,2.94-14.24,3.5-25.02-1.66-31.49-8.98-33.22-8.99-1.48-.01-1.15,1.5-1.25,1.5-.17,0-.33,0-.5,0-.31,0-5.24-2.82-5.5-3-5.76-3.85-7.79-8.55-10.49-14.49-.32-.71-.49-.47-.5-.5.52-1.2,3.69,1.51,6.99,2.5Z"/>
          <path class="cls-28" d="M121.05,215c3.44.23,7.33.56,10.74.5,7.39-.14,18.83-3.21,24.73-1.5-18.22,4.77-39.87,5.17-57.95-.5-3.9-1.23-9.08-3.13-11.99-6,.1,0-.23-1.51,1.25-1.5,1.74.02,8.21,7.34,33.22,8.99Z"/>
          <path class="cls-1" d="M117.05,179.03c-.88-.87-2.47-1.45-2.5-3,2.08-.54,4.17-1.38,6-2.5q4.5,1.12,8.99,2.25c-5.14,3.52-12.38,1.07-12.49,3.25Z"/>
          <g>
            <path class="cls-49" d="M89.17,142.71v-.5c1.64-1.09,2.59-1.43,3.5-2,1.24-.77,2.73-1.29,4-2h1c11.75-3.35,30.87,2.02,25.73,6-1.39,1.08-29.73-4.4-34.22-1.5Z"/>
            <g>
              <path class="cls-29" d="M137.54,149.05c-.39,1.98-.06,4.23-1,6.25-4.23,9.05-19.24,5.87-7.99,8.49-1.62,4.28-4.06,7.33-7.99,9.74-1.83,1.12-3.92,1.96-6,2.5-1.37.35-2.55.86-4,1-.49.05-1-.01-1.5,0-1.35.03-3.3.16-4.5,0-2.02-.27-6.99-2.25-8.99-3.5-9.26-5.75-4.8-11.53-5-12.24-.29-1.04-10.66-5.6-1-18.74,4.49-2.9,32.83,2.57,34.22,1.5,5.14-3.97-13.98-9.35-25.73-6,9.88-4.9,35.3.06,39.47,10.99Z"/>
              <path class="cls-29" d="M124.8,149.05c4.86-1.02,4.05,9.03-1.75,2.75l1.75-2.75Z"/>
              <path class="cls-24" d="M95.32,166.54c2.91.11,5.45,1.59,7.24,3.75-.44.98-6.9-2.24-7.24-3.75Z"/>
              <path class="cls-24" d="M101.56,159.54c.31,1.07-2.09,2.28-2.75,2.5-6.01,1.98-7.09-.09,2.75-2.5Z"/>
              <path class="cls-24" d="M101.56,159.54l1-.75-1,.75Z"/>
            </g>
          </g>
          <g>
            <path class="cls-41" d="M163.52,174.03c-2.5,3.95-2.94,9.58-8.49,12.49-10.05,5.26-29.99.36-37.97-7.49.11-2.18,7.35.28,12.49-3.25q-4.5-1.12-8.99-2.25c3.93-2.41,6.37-5.46,7.99-9.74-11.25-2.62,3.76.56,7.99-8.49.94-2.01.61-4.26,1-6.25.73-3.76.95-7.7,1.5-11.49,6.95,6.44,22.94,27.61,24.48,36.47Z"/>
            <path class="cls-32" d="M150.28,175.53c14.44,2.13-4.16,15.62-2.25,1.75l2.25-1.75Z"/>
          </g>
          <path class="cls-28" d="M134.54,198.51c-6.45,7.56-23.96,11.8-32.97,6.99,4.58.89,3.13-.47,4.25-.5,1.18-.03,1.61,3.67,6.74-2.5,8.3-.01,16.08-4.66,18.24-5,.4-.06,3.55,1.02,3.75,1Z"/>
          <path class="cls-48" d="M93.57,193.52c3.65,5.75,12.45,9,18.98,8.99-5.13,6.17-5.57,2.47-6.74,2.5-1.11.03.33,1.39-4.25.5-4.26-.83-6.96-4.33-9.99-6.99-1.34-1.18-1.71-3.03-3.5-4l5.5-1Z"/>
          <g>
            <path class="cls-17" d="M110.56,177.03c4.92,15.31,20.24,22.18,35.47,18.98l.5,1.5c-3.81.75-8.08.6-11.99,1-.19.02-3.35-1.06-3.75-1-2.16.34-9.94,4.98-18.24,5-6.53.01-15.34-3.24-18.98-8.99-.04-.07.07-.75-.5-1.5,7.14-1.23,16.23-7.04,15.99-14.99.5-.01,1.01.05,1.5,0Z"/>
            <path class="cls-12" d="M120.55,200.01c-1.54-2.88-15.34-1.14-18.98-7.99,2.4-1,5.9-3.01,6.25-3,.75.03,6.53,4.87,12.99,7.49,3.44,1.4,11.64,1.6-.25,3.5Z"/>
            <path class="cls-26" d="M120.55,200.01c-8.57,1.37-18.36.77-24.48-6.25,1.77-.76,3.73-1.01,5.5-1.75,3.64,6.85,17.44,5.12,18.98,7.99Z"/>
          </g>
          <g>
            <path class="cls-21" d="M81.08,148.05c-7.69,7.57-14.2,19.63-12.99,30.48.27,2.39.35,3.78,1.5,6,1.52,2.93,2.41,3.02,5,4.5.08.04-.16.3,1.5,1l.5,2c-3.31-.99-6.47-3.7-6.99-2.5-.97-2.29-2.55-5.06-3-7.49-.21-1.16-.43-3.27-.5-4.5-.61-11.05,4.97-20.68,12.49-28.48.68-.71,1.23-1.86,2.5-1Z"/>
            <path class="cls-10" d="M109.06,177.03c.25,7.95-8.84,13.75-15.99,14.99-5.72.99-11.6.28-16.99-2-1.66-.7-1.42-.95-1.5-1-.49-2.9,13.02-.69,13.99-3,6.47.07,12.6-3.23,15.99-8.99,1.2.16,3.15.03,4.5,0Z"/>
            <path class="cls-16" d="M95.57,173.53c2,1.24,6.97,3.23,8.99,3.5-3.39,5.76-9.52,9.06-15.99,8.99-3.71-.04-3.79-.99-4-1-.4-3.31,4.73.48,3-3.5,13.59.61-4.4-13.38,6.25-5.5l1.75-2.5Z"/>
            <path class="cls-11" d="M93.07,192.02c.57.75.46,1.43.5,1.5l-5.5,1c-2.47-1.33-5.71-.78-11.49-2.5l-.5-2c5.38,2.28,11.26,2.99,16.99,2Z"/>
            <path class="cls-32" d="M87.58,181.53c1.73,3.98-3.39.19-3,3.5-7.82-.17-10.68.57-11.24.5-.86-.1-1.99-2.46-3.75-1-1.15-2.21-1.23-3.6-1.5-6,7.64,4.8,2.27,1.31,5.25-3.5,3.29,11.16,7.25,2.9,7.99,3.5,1.53,1.22-1.16,2.67,6.25,3Z"/>
            <path class="cls-28" d="M84.58,185.02c.21,0,.28.96,4,1-.97,2.3-14.48.1-13.99,3-2.59-1.48-3.47-1.56-5-4.5,1.76-1.46,2.89.9,3.75,1,.57.07,3.42-.67,11.24-.5Z"/>
            <g>
              <path class="cls-41" d="M89.06,142.13l.24.25c-9.89,13.27.58,17.87.87,18.91.2.71-4.26,6.49,5,12.24l-1.75,2.5c-10.64-7.88,7.34,6.1-6.25,5.5-7.4-.33-4.72-1.78-6.25-3-.75-.6-4.71,7.66-7.99-3.5-2.98,4.81,2.4,8.3-5.25,3.5-1.21-10.85,5.3-22.9,12.99-30.48,2.46-2.43,5.53-4.05,8.39-5.92Z"/>
              <path class="cls-32" d="M86.83,175.03c1.94.78,5.25,2.79,3,5-3.47-4.3-4.64,4.04-6.25-2.75l3.25-2.25Z"/>
            </g>
          </g>
        </g>
      </g>
      <g>
        <path class="cls-34" d="M191.49,116.58c.05.09,1.08.54,1.5,1.5,14.19,32.55-20.6,56.62-38.97,31.97-6.78-9.1-8.16-21.27-6-31.97,4.25-2.21,1.01,14.51,6.49,23.23,1.62,2.85,7.47,8.05,10.49,9.24-.8,6.77,18.89,5.46,20.48-4.5,8.62-6.54,6.16-20.83,4.5-30.23l1.5.75Z"/>
        <path class="cls-17" d="M168.51,93.6c.5,1.46,5.57,2.48,9.24,5,5.89,4.03,10.58,11.66,13.74,17.99l-1.5-.75c1.66,9.4,4.13,23.69-4.5,30.23-.55.42-3.08,2-4,1.5,2.91-2.42,4.25-3.01,6-6.99,9.42-21.52-15.58-56.83-30.98-31.48-3.9,6.43-5.23,14.59-4,21.98,2.19,13.12,14.96,23.77,27.98,17.49-5.68,3.97-8.62,4.7-15.49,2-3.02-1.19-8.87-6.39-10.49-9.24-5.49-8.72-2.25-25.44-6.49-23.23,1.54-7.63,8.27-18.94,14.99-22.98,2.31-1.39,5-1.23,5.5-1.5Z"/>
        <path class="cls-34" d="M185.5,146.05c-1.6,9.95-21.28,11.27-20.48,4.5,6.86,2.7,9.8,1.97,15.49-2,.06-.04.21-.35,1-1,.92.5,3.45-1.08,4-1.5Z"/>
        <g>
          <path class="cls-22" d="M187.5,140.56l-1.25-1-1.25,1c6.14-9.93,1.56-22.19-6.49-29.48-3.13-2.83-1.5-3.66-11.74-4-.38-.01-.13-1.01-.5-1-1.43.04-5.62,5.09-6,5-.11-.03-.63-1.15-1.25-2-.14-.19.25-1.41-.25-1.5l-2.25,1.5c15.39-25.35,40.4,9.95,30.98,31.48Z"/>
          <path class="cls-31" d="M160.02,134.56c4.21,14.53,18.71,16.13,24.98,6l1.25-1,1.25,1c-1.74,3.98-3.09,4.58-6,6.99-.79.65-.94.96-1,1-13.02,6.28-25.79-4.37-27.98-17.49,1.18-8.71,4.17,1.81,7.49,3.5Z"/>
          <path class="cls-3" d="M159.02,109.08c-1.07,2.92-3.36,12.72,1,13.49-2.54,3.65-1.11,8.18,0,11.99-3.33-1.68-6.32-12.21-7.49-3.5-1.23-7.39.09-15.55,4-21.98l2.25-1.5c.5.09.11,1.31.25,1.5Z"/>
          <path class="cls-29" d="M178.5,111.08c8.05,7.29,12.63,19.55,6.49,29.48-6.27,10.13-20.77,8.53-24.98-6-1.11-3.81-2.54-8.34,0-11.99,5.85-.07,8.23-5.8,2.5-8.74,3.95-4.79,10.63-6.27,15.99-2.75Z"/>
          <path class="cls-35" d="M178.5,111.08c-5.36-3.53-12.04-2.04-15.99,2.75,5.74,2.95,3.35,8.67-2.5,8.74-4.36-.77-2.07-10.57-1-13.49.62.85,1.13,1.97,1.25,2,.38.09,4.56-4.95,6-5,.37-.01.12.99.5,1,10.24.34,8.61,1.16,11.74,4Z"/>
        </g>
      </g>
      <g>
        <path class="cls-34" d="M57.6,118.22c-2.9,17.51,10.37,36.53,28.48,23.48.49-.35,3.8-3.25,4-3.5-.94,3.45,1.08.25,4-2-.75,1.34-2.07,2.61-1,4-.91.57-1.85.91-3.5,2-2.88,1.91-6,3.54-8.49,6-1.26-.86-1.82.29-2.5,1-21.33,10.7-25.46-15.45-22.98-30.98h2Z"/>
        <path class="cls-17" d="M85.08,92.6c10.37,2.46,19.98,23.88,8.99,43.47-2.92,2.25-4.94,5.44-4,2,.8-.99,1.41-2.85,1.5-3,5.67-9.4,6-23.63-.5-32.72-10.18-14.25-27.74,2.48-30.48,17.74-1.27,7.1-1.14,11.12,3,17.49,5.82,8.95,13.44,7.37,22.48,4-18.1,13.05-31.38-5.97-28.48-23.48,1.96-11.85,16.77-28.02,27.48-25.48Z"/>
        <g>
          <path class="cls-31" d="M91.57,135.06c-.09.15-.7,2.01-1.5,3-.2.25-3.51,3.14-4,3.5-9.04,3.37-16.66,4.96-22.48-4,1.67-3.33,4.52,1.02,6.49,0,5.85,6.34,14.54,4.31,19.48-2l2-.5Z"/>
          <path class="cls-8" d="M91.57,135.06l-2,.5c4.74-6.04,6.59-17.54,2.5-24.23-7.02-11.46-27.4-.51-25.98,16.74-.51,1.24-2.22-4.74-5.5-7.99,2.74-15.25,20.3-31.99,30.48-17.74,6.5,9.1,6.17,23.32.5,32.72Z"/>
          <path class="cls-31" d="M66.09,128.07c.27,3.32,1.67,6.98,4,9.49-1.98,1.02-4.83-3.33-6.49,0-4.14-6.37-4.27-10.39-3-17.49,3.27,3.25,4.99,9.23,5.5,7.99Z"/>
          <g>
            <path class="cls-29" d="M89.57,135.56c-4.95,6.3-13.63,8.34-19.48,2-2.32-2.52-3.72-6.17-4-9.49-1.42-17.25,18.96-28.2,25.98-16.74,4.1,6.69,2.24,18.19-2.5,24.23Z"/>
            <path class="cls-35" d="M85.83,112.08c11.88,3.04-3.89,14.03-2.25,1.75l2.25-1.75Z"/>
          </g>
        </g>
      </g>
    </g>
  </g>
</svg>