<?xml version="1.0" standalone="no"?>
<!DOCTYPE svg PUBLIC "-//W3C//DTD SVG 20010904//EN"
 "http://www.w3.org/TR/2001/REC-SVG-20010904/DTD/svg10.dtd">
<svg version="1.0" xmlns="http://www.w3.org/2000/svg"
 width="300.000000pt" height="300.000000pt" viewBox="0 0 300.000000 300.000000"
 preserveAspectRatio="xMidYMid meet">
<metadata>
Created by potrace 1.10, written by Peter Selinger 2001-2011
</metadata>
<g transform="translate(0.000000,300.000000) scale(0.100000,-0.100000)"
fill="#000000" stroke="none">
<path d="M717 2613 c-4 -3 -7 -37 -7 -73 0 -85 10 -95 86 -87 55 6 56 5 68
-25 l13 -31 10 28 c9 27 12 28 78 29 l70 1 3 83 3 82 -159 0 c-87 0 -162 -3
-165 -7z m303 -73 l0 -70 -65 0 c-51 0 -67 -4 -72 -16 -5 -15 -7 -15 -15 0 -7
12 -25 16 -73 16 l-65 0 0 70 0 70 145 0 145 0 0 -70z"/>
<path d="M760 2580 c0 -6 45 -10 115 -10 70 0 115 4 115 10 0 6 -45 10 -115
10 -70 0 -115 -4 -115 -10z"/>
<path d="M818 2553 c34 -2 88 -2 120 0 31 2 3 3 -63 3 -66 0 -92 -1 -57 -3z"/>
<path d="M818 2523 c34 -2 88 -2 120 0 31 2 3 3 -63 3 -66 0 -92 -1 -57 -3z"/>
<path d="M803 2493 c26 -2 68 -2 95 0 26 2 4 3 -48 3 -52 0 -74 -1 -47 -3z"/>
<path d="M1366 2564 c-9 -44 -30 -53 -65 -26 l-28 21 -32 -33 c-36 -37 -38
-47 -12 -70 29 -27 16 -54 -28 -58 -34 -3 -36 -5 -39 -40 l-3 -38 -412 -2
-412 -3 -3 -47 -3 -48 448 -2 448 -3 -412 -2 -413 -3 -5 -23 c-3 -12 -4 -212
-3 -445 l3 -422 -27 0 c-27 0 -28 -2 -28 -50 0 -48 1 -50 28 -50 26 0 27 -2
27 -47 l0 -48 79 -3 c46 -2 84 2 90 8 7 7 -15 10 -72 10 l-82 0 0 44 c0 26 6
48 15 56 20 16 20 69 0 76 -13 5 -15 64 -15 445 l0 439 755 0 755 0 0 -105 0
-105 -80 0 -80 0 0 -92 0 -92 -42 -43 -42 -43 -56 52 -55 53 53 -55 52 -56
-28 -27 -29 -28 -27 22 c-25 19 -27 26 -24 83 l3 61 95 5 c117 6 94 22 -27 19
l-83 -2 0 -71 -1 -71 -34 40 c-19 22 -35 51 -36 65 -1 17 -3 19 -6 8 -3 -14
-8 -16 -23 -8 -23 12 -99 -18 -78 -31 7 -4 12 -20 13 -35 0 -21 9 -34 35 -51
19 -12 41 -27 47 -33 7 -6 16 -9 20 -8 4 2 33 -36 65 -84 35 -53 74 -98 100
-116 24 -17 55 -42 71 -57 15 -14 27 -23 27 -21 0 3 40 -33 88 -81 80 -79 87
-89 84 -120 l-4 -33 -218 0 -219 0 -4 23 -4 22 -2 -22 -1 -23 -277 0 c-186 0
-274 -3 -267 -10 7 -7 182 -9 505 -8 l494 3 5 40 c7 55 16 34 24 -55 l7 -75
-195 3 c-166 3 -197 1 -202 -11 -3 -8 8 -64 23 -123 l29 -108 -28 -25 c-41
-36 -47 -92 -16 -150 18 -35 36 -52 85 -79 34 -18 71 -34 82 -35 11 0 17 -6
13 -12 -3 -5 -5 -21 -3 -35 2 -14 0 -22 -3 -19 -3 3 -7 17 -8 32 -1 14 -6 23
-10 21 -5 -3 -6 -17 -3 -32 4 -23 4 -24 -4 -7 -7 14 -10 15 -10 5 -1 -13 -2
-13 -11 0 -5 8 -10 20 -10 25 0 6 4 4 9 -3 7 -11 9 -11 14 1 4 12 -6 16 -47
21 -63 8 -84 1 -92 -30 l-6 -24 -642 -2 -641 -3 639 -2 c562 -3 642 -5 657
-19 9 -8 45 -24 80 -35 68 -20 97 -24 64 -8 -17 8 -17 9 5 4 14 -2 32 -5 40
-6 10 0 8 -3 -5 -9 -18 -8 -17 -9 8 -9 15 -1 40 7 54 16 26 17 85 26 166 25
28 0 47 -8 66 -26 21 -20 37 -26 67 -25 37 1 38 2 9 8 -27 6 -24 8 25 14 30 3
65 4 78 1 32 -9 81 14 88 42 l6 24 202 2 201 2 -204 6 c-202 5 -242 13 -189
37 16 7 24 20 25 39 l2 29 -14 -26 c-16 -30 -56 -51 -132 -70 -29 -7 -50 -16
-47 -20 2 -4 -4 -5 -14 -2 -10 2 -43 -1 -73 -7 -30 -7 -73 -12 -96 -11 -23 1
-53 -3 -68 -9 -33 -13 -71 7 -103 54 -31 45 -28 56 13 56 25 0 85 25 193 79
86 44 169 83 185 87 15 3 27 10 27 15 0 5 12 9 28 9 18 0 23 -3 14 -9 -10 -6
-9 -10 7 -14 13 -3 19 -1 15 5 -4 6 0 6 13 0 27 -15 73 -104 73 -142 0 -22 -9
-41 -29 -61 -16 -16 -25 -29 -20 -29 6 0 21 11 34 25 29 28 34 89 11 133 -18
35 -10 132 11 132 7 0 18 11 23 25 14 37 33 273 29 369 -5 103 -19 122 -119
159 -61 23 -65 26 -68 58 -3 30 1 36 27 46 33 12 71 66 71 101 0 15 4 21 12
16 21 -13 1 51 -31 97 -38 57 -60 69 -131 76 -50 4 -60 2 -85 -19 -24 -21 -28
-32 -29 -81 0 -31 -2 -54 -5 -52 -2 2 -12 -7 -23 -21 -15 -19 -17 -28 -8 -38
6 -8 10 -31 8 -52 -3 -35 -1 -38 30 -46 17 -5 32 -13 32 -18 0 -18 -33 -10
-79 19 -25 16 -62 34 -82 40 l-36 11 5 134 c3 74 1 152 -4 173 -7 29 -10 0
-14 -125 l-5 -162 -37 19 c-21 10 -48 21 -61 25 -12 3 -38 21 -57 41 l-34 35
42 0 42 0 0 105 0 105 135 0 135 0 0 100 0 100 -72 0 -73 0 0 107 0 108 -160
5 c-157 6 -158 6 -45 8 110 3 116 4 134 28 18 25 18 26 -5 50 -20 21 -31 24
-100 24 l-78 0 -3 38 c-3 34 -6 37 -35 40 -47 5 -59 33 -27 63 l24 23 -36 37
-37 38 -28 -21 c-36 -27 -55 -19 -63 26 -7 35 -8 36 -55 36 -48 0 -49 -1 -55
-36z m94 -4 c0 -21 8 -35 25 -46 25 -16 27 -16 50 6 l25 24 29 -28 30 -29 -21
-27 c-26 -36 -12 -67 35 -75 27 -5 32 -11 34 -36 l2 -29 -69 0 c-68 0 -70 1
-70 26 0 61 -45 104 -110 104 -65 0 -110 -43 -110 -104 0 -25 -2 -26 -68 -26
l-69 0 5 29 c3 23 11 31 33 36 43 10 56 41 31 75 l-21 27 30 29 29 28 25 -24
c23 -22 25 -22 50 -6 17 11 25 25 25 46 0 28 2 30 40 30 38 0 40 -2 40 -30z
m11 -130 c22 -12 49 -61 49 -90 0 -19 -6 -20 -100 -20 -94 0 -100 1 -100 20 0
28 26 77 47 89 23 13 79 14 104 1z m353 -145 c-4 -15 -1 -32 6 -40 11 -13 -75
-15 -739 -15 l-751 0 0 33 c0 19 3 37 7 40 3 4 339 7 745 7 l738 0 -6 -25z
m-306 -72 c-54 -2 -142 -2 -195 0 -54 1 -10 3 97 3 107 0 151 -2 98 -3z m552
-243 c0 -6 -57 -10 -150 -10 -93 0 -150 4 -150 10 0 6 57 10 150 10 93 0 150
-4 150 -10z m-38 -55 c4 -5 8 -27 8 -47 l0 -38 -55 0 c-43 0 -53 3 -49 14 5
12 -6 16 -48 19 l-53 4 56 -1 c51 -1 59 2 85 31 29 32 43 36 56 18z m-52 -5
c0 -11 -80 -11 -125 0 -22 6 -9 8 48 9 45 1 77 -3 77 -9z m-525 -116 c14 -9
23 -19 20 -23 -6 -10 46 -57 140 -126 44 -33 103 -81 132 -107 28 -26 59 -48
67 -48 17 0 19 -28 8 -113 l-7 -48 -34 35 c-19 20 -38 36 -41 36 -8 0 -67 50
-119 100 -20 20 -52 63 -72 95 -24 42 -46 65 -71 77 -41 20 -52 33 -42 49 5 8
10 6 16 -5 11 -20 48 -41 48 -27 0 5 -9 12 -19 16 -11 3 -23 15 -26 26 -4 11
-16 24 -28 29 -19 8 -17 9 13 10 34 1 34 2 10 12 -14 6 -29 10 -33 9 -5 -1 -6
3 -2 9 8 13 11 13 40 -6z m343 -101 l-3 -98 -42 -3 c-34 -3 -51 3 -80 25 -21
15 -40 29 -42 30 -3 2 7 16 22 31 l27 26 57 -54 c32 -30 47 -41 33 -25 -13 17
-38 42 -55 57 l-30 27 40 40 c21 23 47 41 57 41 17 0 18 -9 16 -97z m-372 54
c22 8 16 -15 -7 -28 -13 -7 -19 -7 -15 -1 3 6 2 13 -4 17 -5 3 -10 11 -10 18
0 8 3 8 11 0 6 -6 18 -9 25 -6z m834 -102 c15 -8 38 -30 49 -48 35 -57 23
-108 -15 -66 -10 11 -32 27 -49 34 -48 22 -89 61 -82 79 8 20 58 21 97 1z
m-80 -75 c5 9 10 6 15 -9 10 -31 3 -34 -44 -21 -26 7 -41 17 -41 26 0 11 6 14
18 10 15 -5 15 -5 1 6 -9 7 -14 19 -11 27 3 9 12 3 30 -19 17 -22 27 -28 32
-20z m-11 -46 c23 -5 31 -12 31 -28 0 -19 2 -18 24 9 20 25 26 28 40 16 9 -7
16 -19 16 -25 0 -13 -53 -68 -61 -64 -2 2 3 -4 12 -12 9 -8 19 -37 22 -63 4
-44 3 -49 -20 -58 -31 -12 -55 -11 -89 1 -21 8 -24 14 -16 22 7 7 12 20 12 29
0 9 11 24 25 33 34 23 32 38 -4 20 -16 -8 -41 -12 -58 -8 -25 5 -29 10 -25 30
3 18 11 24 31 25 l26 2 -25 4 c-24 4 -58 52 -39 54 5 1 13 2 18 3 5 0 13 4 17
9 9 9 22 9 63 1z m-244 -115 c42 -21 43 -23 33 -53 -14 -41 -13 -40 -40 -25
-12 7 -31 12 -40 10 -15 -2 -18 5 -18 37 0 35 6 52 18 52 3 0 24 -10 47 -21z
m61 -85 c-9 -26 -16 -60 -16 -75 0 -15 -4 -31 -10 -34 -14 -9 -12 22 5 89 17
63 24 80 32 72 3 -3 -2 -26 -11 -52z m81 -16 c27 -67 122 -93 195 -54 34 19
38 19 80 3 55 -21 70 -46 74 -125 4 -78 -7 -100 -48 -94 -47 7 -62 40 -55 125
6 70 6 71 -10 43 -13 -24 -14 -47 -9 -124 5 -66 3 -92 -4 -87 -6 4 -9 12 -7
18 2 6 -7 27 -20 46 -13 18 -23 46 -22 60 0 23 2 21 15 -13 21 -57 26 -57 19
0 -5 36 -2 61 9 88 30 72 4 53 -39 -28 -30 -57 -31 -75 -4 -120 27 -46 38
-154 18 -167 -20 -13 -39 -11 -39 4 0 7 -20 29 -44 49 -27 23 -56 62 -77 103
-43 86 -55 96 -79 65 l-18 -23 -7 24 c-24 75 7 265 41 252 8 -3 22 -23 31 -45z
m-141 -42 c8 -16 13 -31 10 -33 -8 -9 -36 43 -41 78 -5 31 -5 32 6 9 6 -14 17
-38 25 -54z m212 17 c23 -10 51 -13 81 -9 32 4 40 3 26 -3 -30 -14 -82 -13
-120 3 -29 12 -35 20 -34 43 2 25 2 25 6 5 3 -16 17 -29 41 -39z m-1708 -3 c0
-11 -7 -20 -15 -20 -8 0 -15 -7 -15 -15 0 -9 -9 -15 -25 -15 -22 0 -25 4 -25
35 0 34 1 35 40 35 33 0 40 -3 40 -20z m1638 -234 c32 -68 91 -141 123 -151
10 -4 19 -11 19 -16 0 -40 -101 58 -144 140 -33 63 -43 91 -32 91 2 0 18 -29
34 -64z m-49 -53 c37 -143 51 -206 47 -211 -4 -3 -6 3 -6 13 0 10 -2 16 -5 13
-10 -9 7 -68 18 -61 6 4 8 -2 5 -15 -4 -12 -2 -20 3 -16 5 3 9 0 9 -5 0 -8
-70 -11 -215 -11 -253 0 -219 -23 -268 180 l-33 135 193 -3 c133 -3 193 0 193
7 0 6 11 11 25 11 20 0 26 -7 34 -37z m400 -2 c11 -7 12 -26 7 -92 -10 -109
-14 -127 -38 -140 -11 -6 -81 -15 -155 -21 -145 -10 -153 -8 -153 38 0 17 10
22 58 31 31 6 85 19 118 28 l62 17 -5 58 c-8 81 -2 90 49 90 24 0 49 -4 57 -9z
m-290 -93 c22 -21 41 -40 41 -43 0 -6 -70 -18 -76 -12 -3 3 -11 28 -19 56 -15
59 -12 59 54 -1z m-499 -157 c14 -54 50 -71 148 -71 l75 0 52 -49 51 -49 -43
-21 c-24 -11 -59 -21 -79 -21 -21 0 -37 -6 -40 -15 -5 -12 -12 -11 -45 6 -22
11 -45 17 -51 13 -7 -5 -8 -3 -3 6 6 10 4 12 -8 7 -10 -4 -16 -2 -14 5 1 6 -4
13 -12 16 -10 3 -11 0 -5 -9 4 -8 -8 -2 -27 12 -44 34 -59 63 -59 118 0 32 6
51 22 68 12 13 23 23 24 23 2 0 8 -18 14 -39z m578 -38 c-16 -2 -28 -7 -28
-11 0 -4 -37 -8 -83 -8 -45 -1 -66 0 -47 3 19 2 39 9 45 14 5 5 38 8 75 8 36
-1 53 -4 38 -6z m-93 -47 c-46 -22 -51 -22 -63 -7 -12 14 -8 17 35 22 79 10
80 9 28 -15z m-74 -7 c12 -23 10 -26 -42 -54 -30 -16 -51 -6 -56 26 -2 13 -6
25 -10 28 -3 3 -3 -4 0 -16 7 -29 4 -29 -31 6 l-29 29 78 1 c70 1 80 -1 90
-20z m-383 -161 c7 -7 12 -25 12 -41 0 -30 -2 -31 -55 -12 -20 7 -20 6 -1 -9
11 -9 15 -16 9 -16 -6 0 -16 7 -23 15 -7 8 -9 15 -5 15 4 0 1 7 -6 16 -11 14
-10 18 6 30 23 17 47 18 63 2z m656 -60 c-5 -7 -9 -17 -9 -23 0 -5 -12 -14
-28 -19 -21 -8 -31 -6 -43 6 -23 23 -9 56 29 67 37 10 65 -7 51 -31z"/>
<path d="M1740 2285 c-11 -13 -11 -19 3 -32 21 -21 49 -9 45 19 -4 28 -30 35
-48 13z m40 -15 c0 -11 -7 -20 -15 -20 -8 0 -15 9 -15 20 0 11 7 20 15 20 8 0
15 -9 15 -20z"/>
<path d="M1790 874 c-13 -32 3 -56 34 -52 39 6 29 78 -10 78 -8 0 -19 -12 -24
-26z m50 -15 c0 -23 -27 -36 -42 -21 -14 14 8 53 27 46 8 -4 15 -15 15 -25z"/>
<path d="M2320 2392 c-20 -10 -44 -33 -55 -54 -14 -27 -27 -38 -43 -38 -12 0
-32 -10 -42 -22 -11 -13 -36 -40 -55 -61 -40 -43 -44 -68 -15 -97 18 -18 33
-20 140 -20 l120 0 0 -31 c0 -17 -4 -28 -10 -24 -14 9 -13 -8 2 -23 17 -17 26
-15 39 11 11 20 11 21 -4 8 -15 -12 -17 -10 -17 23 l0 36 113 0 c99 0 116 2
131 19 20 22 21 36 7 111 -14 73 -61 120 -120 120 -24 0 -43 6 -48 14 -10 19
-62 46 -88 46 -11 0 -36 -8 -55 -18z m125 -28 c16 -14 38 -24 56 -24 62 0 108
-43 114 -106 1 -16 6 -37 10 -47 4 -9 4 -28 1 -42 -8 -30 -40 -37 -156 -33
-74 3 -85 5 -84 21 1 9 -2 17 -7 17 -5 0 -9 -9 -9 -20 0 -19 -7 -20 -104 -20
-117 0 -151 9 -161 41 -6 18 -1 28 24 48 17 14 31 31 31 38 0 18 50 53 76 53
17 0 27 9 37 33 32 74 115 94 172 41z"/>
<path d="M2370 2201 c0 -17 5 -31 10 -31 6 0 10 11 10 24 0 14 -4 28 -10 31
-6 4 -10 -7 -10 -24z"/>
<path d="M1904 2285 c-8 -21 2 -45 19 -45 21 0 38 25 31 44 -8 20 -43 21 -50
1z m42 -6 c10 -17 -13 -36 -27 -22 -12 12 -4 33 11 33 5 0 12 -5 16 -11z"/>
<path d="M1820 2160 c0 -5 16 -10 35 -10 19 0 35 5 35 10 0 6 -16 10 -35 10
-19 0 -35 -4 -35 -10z"/>
<path d="M850 2138 c0 -27 15 -34 32 -17 14 15 15 18 1 23 -23 9 -33 7 -33 -6z"/>
<path d="M1374 2142 c-6 -4 -4 -13 7 -24 15 -14 18 -15 23 -1 12 31 -3 44 -30
25z"/>
<path d="M1560 2080 l0 -50 33 0 c42 0 67 26 67 68 0 32 -1 32 -50 32 l-50 0
0 -50z m80 19 c0 -11 -6 -27 -14 -35 -8 -8 -24 -14 -35 -14 -17 0 -21 6 -21
35 0 33 2 35 35 35 29 0 35 -4 35 -21z"/>
<path d="M1820 2110 c0 -5 16 -10 35 -10 19 0 35 5 35 10 0 6 -16 10 -35 10
-19 0 -35 -4 -35 -10z"/>
<path d="M900 1960 l0 -150 230 0 230 0 0 150 0 150 -230 0 -230 0 0 -150z
m450 37 c0 -92 -2 -106 -20 -122 -20 -18 -22 -18 -90 50 l-70 69 -30 -29 -30
-29 -45 44 -45 44 -55 -54 -55 -54 0 92 0 92 220 0 220 0 0 -103z m-280 -37
l45 -39 27 26 28 27 68 -67 68 -67 22 22 22 22 0 -32 0 -32 -220 0 -220 0 0
37 c0 32 8 46 52 90 29 29 55 53 58 53 3 -1 25 -19 50 -40z"/>
<path d="M1240 2045 c-26 -31 13 -82 44 -56 19 16 21 42 4 59 -16 16 -33 15
-48 -3z m29 -17 c11 -11 12 -10 6 2 -6 12 -5 12 5 3 7 -6 9 -16 6 -21 -9 -15
-41 -7 -44 11 -4 20 9 22 27 5z"/>
<path d="M533 2060 c-6 -22 -14 -25 -29 -10 -7 7 -16 4 -28 -9 -11 -12 -14
-21 -7 -26 17 -10 13 -22 -9 -28 -14 -3 -20 -14 -20 -31 0 -19 5 -26 20 -26
21 0 27 -15 9 -25 -7 -5 -4 -14 7 -26 12 -13 21 -16 28 -9 16 16 26 12 26 -10
0 -16 7 -20 30 -20 23 0 30 4 30 20 0 21 15 27 25 9 5 -7 14 -4 26 7 13 12 16
21 9 28 -15 15 -12 23 10 29 12 3 20 14 20 27 0 13 -8 24 -20 27 -22 6 -25 14
-10 29 7 7 4 16 -9 28 -12 11 -21 14 -26 7 -10 -17 -22 -13 -28 9 -3 12 -14
20 -27 20 -13 0 -24 -8 -27 -20z m43 -15 c4 -10 16 -14 33 -13 21 3 26 -1 26
-20 0 -13 9 -30 20 -38 20 -15 20 -15 -2 -32 -17 -13 -21 -23 -16 -41 6 -22 4
-23 -20 -17 -20 5 -29 2 -37 -14 -14 -26 -27 -25 -35 0 -5 15 -14 20 -33 18
-24 -3 -27 0 -24 23 2 20 -3 28 -18 32 -26 7 -26 24 0 32 15 5 20 14 18 33 -3
24 0 27 23 24 17 -1 29 3 33 13 3 8 10 15 16 15 6 0 13 -7 16 -15z"/>
<path d="M522 1998 c-21 -21 -14 -66 13 -84 23 -15 27 -15 50 0 17 11 25 26
25 44 0 35 -16 52 -50 52 -14 0 -31 -5 -38 -12z m68 -12 c6 -8 10 -25 8 -38
-2 -18 -10 -24 -35 -26 -28 -3 -33 1 -39 23 -11 45 37 75 66 41z"/>
<path d="M720 1930 c0 -5 -10 -9 -22 -7 -17 1 -23 -3 -23 -18 0 -11 -6 -24
-12 -28 -17 -11 -17 -37 0 -37 8 0 13 -10 13 -22 -1 -18 4 -22 22 -21 12 2 22
-2 22 -7 0 -6 9 -10 20 -10 11 0 20 4 20 9 0 5 8 8 18 7 12 -1 17 6 16 22 0
12 5 22 13 22 7 0 13 9 13 20 0 11 -6 20 -13 20 -8 0 -13 10 -13 23 1 15 -4
22 -16 21 -10 -1 -18 2 -18 7 0 5 -9 9 -20 9 -11 0 -20 -4 -20 -10z m53 -20
c11 0 15 -4 11 -12 -4 -6 1 -17 11 -25 18 -13 18 -13 0 -26 -11 -9 -15 -19
-10 -27 5 -8 3 -11 -6 -8 -8 3 -22 -1 -31 -10 -12 -10 -18 -11 -18 -4 0 7 -11
12 -25 12 -18 0 -23 4 -18 16 3 9 0 20 -8 25 -12 8 -12 10 0 18 8 5 11 16 8
25 -5 12 0 16 18 16 14 0 25 5 25 12 0 9 3 9 12 0 7 -7 20 -12 31 -12z"/>
<path d="M713 1893 c-18 -7 -16 -48 2 -63 34 -28 80 24 48 55 -15 15 -28 17
-50 8z m42 -33 c0 -16 -6 -26 -18 -28 -19 -4 -32 20 -23 44 9 25 41 13 41 -16z"/>
<path d="M854 1795 c-9 -22 2 -30 26 -19 l20 9 -20 13 c-17 10 -21 10 -26 -3z"/>
<path d="M660 1630 l0 -51 38 3 c23 2 36 8 35 16 -2 6 3 11 10 10 8 -2 12 9
12 32 0 35 0 35 -47 38 l-48 3 0 -51z m80 10 c0 -11 -4 -20 -10 -20 -5 0 -10
-7 -10 -15 0 -9 -9 -15 -25 -15 -22 0 -25 4 -25 35 0 33 2 35 35 35 28 0 35
-4 35 -20z"/>
<path d="M1110 1564 c0 -6 35 -10 98 -8 104 1 139 -9 166 -48 9 -12 16 -37 16
-55 0 -31 12 -43 24 -24 10 15 -30 97 -56 116 -23 17 -23 17 20 11 30 -5 42
-3 42 6 0 10 -37 13 -155 13 -102 0 -155 -4 -155 -11z"/>
<path d="M1157 1532 c-22 -24 -49 -91 -42 -103 9 -14 27 1 21 18 -7 17 8 48
37 81 11 12 16 22 10 22 -5 0 -17 -8 -26 -18z"/>
<path d="M2500 1530 c0 -22 -10 -26 -28 -8 -18 18 -45 -10 -37 -39 4 -16 1
-25 -10 -29 -20 -8 -20 -54 1 -54 12 0 14 -7 9 -28 -7 -34 18 -63 37 -44 18
18 28 14 28 -8 0 -30 55 -28 63 2 5 18 8 19 22 8 13 -11 19 -10 35 5 15 13 17
21 9 31 -13 16 -4 34 17 34 14 0 21 50 7 50 -5 0 -14 4 -22 9 -12 7 -12 13 -3
24 9 11 8 18 -8 32 -16 15 -22 16 -35 5 -14 -11 -17 -10 -22 8 -8 30 -63 32
-63 2z m53 -11 c4 -15 12 -19 34 -17 25 3 28 0 25 -25 -2 -22 2 -30 17 -34 12
-3 21 -11 21 -18 0 -7 -9 -15 -21 -18 -15 -4 -19 -12 -17 -34 3 -25 0 -28 -25
-25 -22 2 -30 -2 -34 -17 -7 -27 -33 -27 -40 -1 -6 21 -28 27 -38 10 -5 -8
-11 -7 -21 1 -10 8 -11 15 -4 24 13 16 2 45 -16 45 -8 0 -14 7 -14 15 0 8 6
15 14 15 18 0 29 29 16 45 -15 18 12 39 29 22 10 -9 16 -7 28 11 19 28 39 28
46 1z"/>
<path d="M2490 1465 c-18 -22 -15 -66 6 -82 57 -42 128 33 76 80 -23 21 -66
22 -82 2z m74 -11 c20 -20 20 -33 -1 -56 -29 -32 -73 -16 -73 27 0 42 44 59
74 29z"/>
<path d="M618 1523 c68 -2 176 -2 240 0 64 1 9 3 -123 3 -132 0 -185 -2 -117
-3z"/>
<path d="M500 1490 c0 -6 85 -10 235 -10 150 0 235 4 235 10 0 6 -85 10 -235
10 -150 0 -235 -4 -235 -10z"/>
<path d="M500 1450 c0 -6 68 -10 184 -10 113 0 187 4 191 10 4 7 -60 10 -184
10 -121 0 -191 -4 -191 -10z"/>
<path d="M1462 1373 c5 -25 28 -28 28 -4 0 12 -6 21 -16 21 -9 0 -14 -7 -12
-17z"/>
<path d="M1470 1300 c0 -17 -8 -19 -77 -22 l-78 -3 0 -30 0 -30 85 0 85 0 3
28 c2 15 -1 27 -6 27 -5 0 -7 11 -4 25 2 14 2 25 -2 25 -3 0 -6 -9 -6 -20z m5
-55 c0 -18 -8 -20 -69 -23 -72 -3 -93 5 -82 33 5 13 19 15 78 13 65 -3 73 -5
73 -23z"/>
<path d="M1530 1303 c0 -9 229 -7 238 1 3 3 -49 6 -116 6 -67 0 -122 -3 -122
-7z"/>
<path d="M1091 1261 c-7 -13 -7 -23 2 -35 10 -14 27 -16 92 -14 76 3 80 4 83
27 5 33 -12 41 -95 41 -60 0 -74 -3 -82 -19z m164 -16 c0 -18 -8 -20 -69 -23
-72 -3 -93 5 -82 33 5 13 19 15 78 13 65 -3 73 -5 73 -23z"/>
<path d="M1640 1270 l-115 -6 123 -2 c80 -1 121 2 117 8 -3 6 -7 9 -8 8 -1 -1
-54 -5 -117 -8z"/>
<path d="M1530 1230 c0 -6 30 -10 70 -10 40 0 70 4 70 10 0 6 -30 10 -70 10
-40 0 -70 -4 -70 -10z"/>
<path d="M590 1105 l0 -105 158 0 159 0 0 105 0 105 -159 0 -158 0 0 -105z
m305 85 c10 -16 -34 -21 -164 -18 -89 2 -126 7 -129 16 -5 15 283 18 293 2z
m-33 -75 c8 -19 8 -31 0 -50 -10 -21 -18 -25 -57 -25 -25 0 -45 2 -45 5 0 20
64 94 83 95 4 0 13 -11 19 -25z m-84 8 c-21 -2 -57 -2 -80 0 -24 2 -7 4 37 4
44 0 63 -2 43 -4z m-18 -43 c0 -5 -22 -10 -50 -10 -27 0 -50 5 -50 10 0 6 23
10 50 10 28 0 50 -4 50 -10z"/>
<path d="M972 970 c-18 -11 -38 -33 -43 -48 -7 -20 -21 -32 -51 -42 -28 -10
-46 -25 -57 -46 -9 -17 -25 -35 -36 -40 -13 -6 -21 -21 -23 -42 -6 -57 6 -62
149 -62 l128 0 4 -27 4 -28 2 28 1 27 113 0 c98 0 116 3 130 18 19 21 22 57 7
67 -5 3 -10 23 -10 44 0 62 -61 121 -126 121 -14 0 -39 11 -56 25 -37 31 -90
33 -136 5z m126 -10 c17 -11 32 -24 32 -28 0 -5 17 -9 38 -9 41 0 86 -24 98
-51 3 -9 10 -35 14 -57 5 -22 11 -49 15 -61 4 -13 1 -27 -10 -38 -14 -14 -47
-16 -254 -16 -196 0 -241 3 -251 14 -17 22 -8 60 18 71 12 5 22 16 22 23 0 25
48 62 80 62 23 0 30 5 30 19 0 10 10 31 21 45 38 49 93 58 147 26z"/>
<path d="M1032 848 c-14 -14 -16 -32 -2 -23 5 3 11 -21 13 -57 l3 -63 2 63 c1
43 6 61 13 56 8 -4 8 0 0 15 -14 25 -13 25 -29 9z"/>
<path d="M1930 502 c21 -14 231 -39 218 -27 -3 3 -45 10 -94 16 -48 5 -100 12
-114 15 -18 4 -21 3 -10 -4z"/>
</g>
</svg>
