<?xml version="1.0" standalone="no"?>
<!DOCTYPE svg PUBLIC "-//W3C//DTD SVG 20010904//EN"
 "http://www.w3.org/TR/2001/REC-SVG-20010904/DTD/svg10.dtd">
<svg version="1.0" xmlns="http://www.w3.org/2000/svg"
 width="300.000000pt" height="290.000000pt" viewBox="0 0 300.000000 290.000000"
 preserveAspectRatio="xMidYMid meet">
<metadata>
Created by potrace 1.10, written by Peter Selinger 2001-2011
</metadata>
<g transform="translate(0.000000,290.000000) scale(0.100000,-0.100000)"
fill="white" stroke="none">
<path d="M430 2433 c0 -567 7 -663 71 -933 121 -510 477 -929 938 -1099 l54
-20 116 56 c330 161 580 411 735 734 102 212 165 444 186 679 5 63 10 325 10
583 l0 467 -1055 0 -1055 0 0 -467z m2088 443 c-17 -12 -18 -48 -18 -492 0
-273 -5 -518 -11 -569 -63 -537 -301 -957 -694 -1224 -101 -69 -201 -126 -265
-151 -19 -8 -38 -18 -42 -24 -8 -13 -156 53 -263 117 -246 148 -442 361 -575
627 -59 118 -93 211 -130 359 -67 267 -80 414 -80 954 l0 417 1048 0 c873 -1
1044 -3 1030 -14z"/>
<path d="M471 2383 c0 -263 4 -500 9 -528 4 -27 7 181 6 463 0 281 0 512 1
512 1 0 24 -24 52 -52 50 -53 50 -53 30 -73 -17 -17 -21 -18 -29 -5 -5 8 -12
11 -16 7 -4 -3 -1 -13 5 -21 10 -11 8 -17 -10 -29 -12 -9 -18 -20 -14 -27 5
-8 14 -5 31 11 13 12 24 17 24 11 0 -7 7 -12 15 -12 17 0 20 16 4 25 -7 5 -4
14 7 26 16 17 19 18 35 4 9 -9 15 -24 12 -36 -3 -10 0 -19 6 -19 6 0 11 5 11
12 0 6 11 1 24 -11 17 -16 26 -19 31 -10 5 7 1 16 -9 21 -13 7 -16 18 -11 41
5 29 4 30 -8 15 -13 -17 -15 -17 -32 2 -17 19 -17 21 29 69 25 28 46 53 46 56
0 15 -26 0 -69 -40 l-48 -45 -29 31 c-16 18 -41 39 -55 48 -24 15 43 16 915
14 518 -2 964 1 991 6 30 5 -354 9 -952 10 l-1003 1 1 -477z"/>
<path d="M2260 2830 c0 -5 21 -30 46 -55 44 -45 45 -47 28 -66 -15 -17 -18
-17 -29 -2 -9 12 -14 13 -20 3 -4 -7 -2 -16 6 -21 11 -6 10 -11 -4 -27 -18
-20 -23 -42 -8 -42 5 0 16 10 25 23 12 15 18 18 22 10 9 -21 26 -15 19 6 -3
11 1 26 11 35 15 16 18 16 35 0 15 -13 16 -20 8 -31 -16 -18 -3 -29 15 -14 11
10 17 8 29 -10 9 -12 20 -18 27 -14 8 5 5 14 -9 29 -15 16 -18 25 -10 33 6 6
8 17 4 24 -6 9 -11 8 -20 -4 -11 -15 -13 -15 -29 2 -16 17 -14 21 29 65 42 44
55 66 38 66 -4 0 -29 -21 -55 -47 l-48 -47 -48 47 c-48 47 -62 56 -62 37z"/>
<path d="M732 2318 l2 -303 6 295 c3 162 7 296 8 298 1 1 338 2 748 2 411 -1
749 1 752 5 3 3 -337 5 -756 5 l-762 0 2 -302z"/>
<path d="M761 2163 c6 -390 8 -436 28 -523 12 -52 19 -105 16 -118 -7 -28 13
-95 55 -193 32 -73 97 -182 86 -144 -6 19 -5 19 11 -1 10 -12 38 -50 63 -85
95 -133 273 -281 418 -348 l52 -24 53 24 c160 74 339 231 450 397 99 148 143
250 181 419 40 179 46 259 46 646 l0 377 -732 0 -733 0 6 -427z m119 390 c0
-4 -19 -26 -42 -50 -41 -42 -41 -42 -24 -68 14 -22 15 -32 7 -57 -14 -40 -14
-91 0 -122 10 -20 9 -30 -5 -51 -9 -14 -21 -23 -26 -20 -11 7 -14 333 -4 359
4 11 19 16 50 16 24 0 44 -3 44 -7z m830 -1 c0 -5 -13 -21 -30 -37 -31 -30
-38 -63 -19 -82 9 -9 9 -20 0 -44 -14 -40 -14 -89 -1 -125 8 -20 7 -32 -3 -48
-8 -12 -18 -37 -21 -56 -16 -77 -14 -76 -60 -32 -41 40 -75 62 -96 62 -6 0
-45 -32 -87 -71 -81 -77 -92 -78 -93 -9 0 19 -7 44 -15 54 -22 29 -19 39 20
79 54 55 40 117 -23 100 -11 -3 -40 2 -64 11 -30 11 -68 16 -123 14 -91 -3
-98 3 -74 75 14 43 15 41 -63 99 -22 16 -3 17 365 18 213 0 387 -4 387 -8z
m475 -14 c3 -13 5 -61 3 -108 -2 -70 -6 -84 -18 -81 -8 3 -30 4 -48 3 -18 -1
-43 3 -55 10 -13 8 -60 13 -117 13 -92 0 -95 1 -98 23 -2 13 2 37 8 52 14 34
3 60 -34 80 -14 7 -26 17 -26 22 0 4 85 8 190 8 188 0 190 0 195 -22z m-356
-48 c27 0 23 -22 -5 -30 -15 -4 -19 -14 -20 -45 0 -22 -2 -46 -5 -54 -7 -22
48 -33 136 -27 67 5 86 3 123 -15 40 -20 44 -20 61 -5 17 16 51 22 51 10 0
-16 -54 -55 -70 -51 -14 3 -20 -3 -24 -25 -10 -49 -7 -76 8 -85 19 -11 37
-110 25 -140 -5 -13 -16 -23 -25 -23 -12 0 -14 5 -8 18 4 9 9 34 12 54 3 31
-1 41 -25 63 -68 61 -74 69 -70 94 2 15 2 20 0 14 -3 -7 -13 -13 -24 -13 -11
0 -18 -4 -14 -10 9 -14 -73 -32 -117 -25 l-39 7 2 -91 c2 -74 0 -95 -14 -108
-22 -23 -33 -9 -17 22 12 23 10 87 -6 143 -5 16 -2 22 9 22 8 0 20 7 27 15 16
19 1 19 -24 0 -11 -8 -32 -15 -47 -15 -24 0 -29 -5 -35 -37 -4 -21 -9 -49 -10
-63 -3 -43 -4 -46 -15 -27 -11 19 -4 103 11 127 5 8 24 20 42 27 18 6 26 12
18 12 -24 1 -50 54 -50 99 0 29 7 49 26 71 29 34 24 54 -10 45 -26 -6 -43 18
-23 34 20 16 61 26 53 13 -4 -6 0 -11 10 -11 14 0 15 3 6 12 -7 7 -12 20 -12
31 0 16 3 15 33 -7 19 -15 44 -26 56 -26z m-906 26 c3 -8 24 -20 46 -26 45
-12 53 -27 19 -35 -20 -5 -23 -13 -24 -65 l-1 -59 44 -7 c24 -3 73 -3 108 1
56 6 72 4 107 -15 37 -19 42 -19 57 -5 18 15 51 21 50 8 -1 -15 -60 -55 -73
-50 -24 10 -36 -88 -13 -107 15 -12 37 -101 33 -131 -3 -21 -31 -43 -41 -33
-4 3 -2 15 4 26 24 45 14 81 -39 132 -27 27 -50 53 -50 59 0 6 -10 11 -22 11
-22 0 -21 -1 7 -24 25 -20 28 -26 16 -40 -7 -9 -11 -23 -7 -31 3 -9 -4 -20
-22 -29 -30 -16 -55 -42 -65 -69 -3 -9 -11 -17 -18 -17 -7 0 -8 7 -4 18 4 9 9
24 12 32 2 9 17 24 33 35 25 17 29 25 27 62 -2 38 -4 42 -22 36 -11 -4 -44 -6
-73 -5 l-54 2 4 -90 c2 -74 0 -92 -14 -107 -23 -23 -35 -9 -18 22 12 23 10 87
-6 143 -5 16 -2 22 9 22 8 0 20 7 27 15 16 19 1 19 -24 0 -11 -8 -32 -15 -47
-15 -24 0 -29 -5 -35 -37 -4 -21 -9 -49 -10 -63 -3 -39 -3 -42 -14 -35 -13 8
-13 55 1 110 9 37 15 44 42 50 18 4 26 9 20 12 -7 2 -13 9 -13 15 0 5 -7 16
-15 24 -25 26 -19 97 11 134 15 17 33 29 40 26 7 -3 16 -1 19 4 6 10 -28 15
-72 11 -35 -3 -30 35 7 54 17 9 30 22 30 30 0 19 16 19 23 1z m1267 -419 c0
-226 -32 -507 -58 -507 -5 0 -107 97 -228 215 l-219 215 18 31 c9 17 17 39 17
50 0 10 4 19 9 19 17 0 22 -38 12 -76 -19 -70 35 -103 78 -48 20 25 22 26 39
10 10 -9 23 -16 28 -16 5 0 36 27 68 61 72 73 90 73 94 3 4 -63 28 -92 62 -74
43 23 49 108 13 193 l-16 38 33 34 c18 19 37 32 42 29 4 -3 8 -83 8 -177z
m-200 93 c12 -7 12 -12 2 -22 -6 -6 -12 -22 -12 -35 0 -13 -4 -23 -8 -23 -13
0 -72 -55 -72 -67 0 -6 -7 -16 -15 -23 -19 -15 -20 -1 -3 37 11 25 26 41 61
64 6 4 6 18 -1 37 -6 17 -8 33 -5 36 9 9 36 7 53 -4z m-123 -405 l284 -280
-21 -60 c-29 -87 -93 -224 -105 -225 -5 0 -129 119 -273 264 l-264 265 -268
-271 -268 -271 -35 69 c-19 38 -47 104 -63 148 l-27 79 329 327 329 328 49
-46 c28 -26 177 -173 333 -327z m23 355 c0 -17 -42 -70 -52 -64 -10 6 -11 58
-1 67 10 11 53 8 53 -3z m-830 -6 c0 -12 -55 -72 -62 -68 -10 6 -11 58 -1 67
8 8 63 9 63 1z m-154 -49 c3 -13 2 -38 -4 -54 -21 -59 41 -97 74 -46 19 29 31
31 55 9 16 -15 22 -11 81 45 35 34 70 60 78 59 10 -2 16 -18 18 -53 2 -28 7
-54 13 -59 5 -6 9 -15 9 -20 0 -6 -49 -57 -110 -116 -60 -58 -148 -143 -194
-189 -78 -78 -85 -82 -95 -63 -26 49 -65 453 -44 452 4 0 17 -7 27 -15 18 -13
22 -13 43 7 13 12 23 32 23 45 0 31 18 30 26 -2z m838 -644 c165 -166 236
-243 231 -253 -24 -41 -97 -137 -124 -163 -27 -25 -33 -27 -41 -15 -5 8 -10
31 -10 50 0 19 -7 46 -15 60 -23 40 -18 61 25 100 22 20 40 46 40 58 0 33 -27
53 -63 47 -20 -4 -47 0 -71 10 -29 12 -63 15 -140 13 l-101 -3 -3 33 c-2 19 4
44 13 58 23 36 11 59 -50 93 -30 17 -55 37 -55 43 0 18 92 108 110 108 9 0
123 -108 254 -239z m-359 75 c14 -13 39 -26 56 -30 33 -6 36 -29 3 -34 -16 -2
-19 -11 -20 -50 -1 -26 -3 -56 -5 -66 -6 -28 45 -38 163 -30 89 5 101 4 137
-17 38 -21 41 -21 65 -6 14 10 32 17 41 17 14 0 14 -3 -2 -24 -23 -31 -60 -49
-69 -34 -7 11 -34 -55 -34 -84 0 -10 10 -28 23 -40 12 -13 21 -26 20 -30 -2
-4 2 -30 7 -58 11 -56 0 -100 -25 -100 -17 0 -21 25 -5 35 6 3 10 19 10 34 0
50 -20 88 -55 107 -38 20 -70 73 -54 89 5 5 9 16 8 25 0 10 -4 7 -11 -7 -6
-13 -19 -23 -28 -23 -9 0 -17 -7 -17 -15 0 -8 8 -15 16 -15 9 0 22 -9 28 -19
10 -16 9 -22 -3 -32 -8 -6 -12 -20 -9 -30 4 -13 -5 -23 -35 -40 -22 -12 -40
-29 -40 -36 0 -7 -5 -13 -11 -13 -5 0 -8 -4 -5 -9 6 -10 -22 -37 -30 -29 -11
11 19 65 53 94 34 29 36 32 25 63 -7 18 -9 37 -7 41 3 5 -19 6 -49 3 -64 -7
-118 3 -95 18 7 5 10 9 4 9 -20 0 -41 -20 -28 -28 6 -4 11 -36 12 -80 0 -40 3
-77 6 -81 8 -14 -25 -71 -41 -71 -18 0 -18 11 1 36 18 24 18 87 0 139 -11 30
-11 41 -2 48 11 7 -60 -1 -75 -9 -9 -6 -22 -84 -19 -116 1 -16 -2 -28 -8 -28
-18 0 -23 46 -11 105 10 49 16 59 41 68 23 9 28 16 23 32 -4 11 -15 26 -25 33
-37 26 -20 127 26 164 31 24 23 42 -15 34 -20 -3 -30 -1 -34 10 -10 26 -7 31
29 48 22 11 35 24 35 36 0 25 4 25 35 -4z m-121 -95 c16 -18 16 -22 1 -66 -15
-47 -13 -99 6 -137 6 -11 3 -28 -11 -51 -11 -18 -23 -61 -26 -95 -6 -52 -4
-66 11 -82 10 -11 23 -20 30 -20 20 0 42 33 49 73 4 22 12 37 19 34 19 -6 27
-59 15 -105 -10 -39 -9 -46 9 -64 26 -25 55 -13 79 34 l16 32 20 -27 c11 -15
24 -27 30 -27 5 0 44 34 85 75 73 72 77 75 95 58 14 -13 18 -29 17 -67 -1 -28
1 -58 5 -67 6 -13 -9 -27 -61 -62 -81 -53 -146 -87 -168 -87 -33 0 -163 75
-250 145 -92 72 -235 242 -235 278 0 12 229 247 241 247 3 0 14 -9 23 -19z
m270 -320 c3 -5 -11 -34 -31 -65 -25 -37 -40 -52 -45 -43 -12 19 -9 92 4 105
14 14 64 16 72 3z"/>
<path d="M1404 2016 c-29 -29 -34 -41 -34 -79 0 -57 34 -101 90 -118 99 -30
184 91 128 181 -19 29 -64 50 -108 50 -34 0 -48 -6 -76 -34z m130 15 c4 -5
-11 -7 -33 -4 -49 7 -76 -8 -100 -55 -11 -20 -20 -31 -21 -24 0 20 20 55 44
74 22 19 101 25 110 9z m4 -41 c47 -44 25 -120 -39 -135 -37 -9 -89 36 -89 76
0 65 81 102 128 59z"/>
<path d="M1029 1657 c-103 -70 -60 -218 63 -217 63 1 118 55 118 115 0 61 -63
125 -123 125 -13 0 -39 -10 -58 -23z m115 -7 c5 -5 -6 -5 -27 1 -49 13 -85 -4
-114 -56 -26 -46 -30 -41 -8 11 9 22 26 40 47 49 33 15 84 13 102 -5z m5 -46
c12 -15 21 -38 21 -51 0 -34 -42 -73 -80 -73 -38 0 -80 39 -80 73 0 42 36 77
80 77 30 0 43 -6 59 -26z"/>
<path d="M1809 1641 c-31 -31 -39 -46 -39 -76 0 -95 96 -154 180 -110 53 27
75 100 47 155 -18 35 -74 70 -115 70 -27 0 -43 -9 -73 -39z m135 9 c5 -5 -6
-5 -27 1 -49 13 -85 -4 -114 -56 -26 -46 -30 -41 -8 11 9 22 26 40 47 49 33
15 84 13 102 -5z m5 -46 c12 -15 21 -38 21 -51 0 -34 -42 -73 -80 -73 -38 0
-80 39 -80 73 0 42 36 77 80 77 30 0 43 -6 59 -26z"/>
<path d="M2170 1455 c-12 -38 -42 -112 -66 -164 -24 -52 -44 -97 -44 -100 0
-3 16 19 35 49 38 60 110 251 103 272 -3 7 -15 -18 -28 -57z"/>
<path d="M1370 709 c0 -5 22 -34 50 -63 l50 -53 -21 -19 c-16 -14 -23 -15 -26
-6 -5 13 -33 17 -33 4 0 -4 5 -13 12 -20 9 -9 7 -17 -11 -36 -16 -17 -19 -26
-10 -31 7 -5 20 2 31 16 13 16 21 20 25 12 5 -14 33 -18 33 -5 0 4 -5 13 -11
19 -8 8 -6 17 7 32 l18 21 23 -22 c18 -16 20 -24 11 -35 -6 -7 -7 -17 -3 -21
4 -4 10 -1 12 6 7 19 27 14 41 -9 10 -16 17 -18 25 -10 8 8 4 18 -13 36 -13
14 -18 25 -12 25 7 0 12 7 12 15 0 18 -16 20 -23 3 -3 -9 -11 -6 -27 9 l-23
22 40 38 c22 21 45 48 52 61 21 40 -9 25 -61 -29 l-49 -51 -54 51 c-56 53 -65
59 -65 40z"/>
<path d="M464 665 c-19 -13 -21 -21 -16 -86 5 -68 4 -72 -14 -64 -64 26 -177
58 -226 62 -60 6 -178 -13 -178 -28 0 -5 10 -9 23 -9 12 0 69 -23 126 -52
l104 -51 -46 -12 c-45 -11 -97 -45 -138 -88 -31 -33 -61 -95 -49 -102 6 -3 10
-2 10 4 0 5 25 22 55 37 49 23 64 26 128 22 61 -4 86 -12 163 -51 110 -57 145
-65 179 -43 22 15 25 23 25 81 0 36 2 65 5 65 3 0 54 -34 114 -75 249 -169
437 -233 711 -242 305 -10 542 61 811 242 61 41 113 75 115 75 2 0 4 -26 4
-58 0 -114 50 -126 201 -48 76 40 105 50 159 54 78 5 138 -9 174 -43 27 -25
34 -18 15 18 -34 64 -115 132 -179 151 l-40 12 71 38 c40 22 102 47 138 56
l66 17 -60 18 c-92 28 -210 11 -369 -51 -18 -7 -19 -3 -14 65 5 65 3 73 -16
86 -25 18 -109 20 -172 4 -31 -8 -87 -43 -172 -105 -148 -109 -244 -162 -370
-203 -261 -86 -543 -61 -792 70 -41 21 -132 81 -202 133 -85 62 -141 97 -172
105 -63 16 -147 14 -172 -4z m167 -11 c39 -11 90 -43 179 -110 199 -150 366
-220 579 -244 175 -19 376 15 545 94 77 36 195 113 294 193 67 54 144 83 218
83 61 0 78 -17 72 -73 -5 -41 3 -113 17 -157 4 -13 -2 -15 -29 -12 -47 5 -101
-21 -236 -116 -63 -45 -153 -101 -200 -126 -211 -111 -476 -162 -701 -137
-250 29 -426 100 -664 267 -130 91 -184 117 -231 112 -29 -3 -33 -1 -28 11 4
9 9 59 12 111 3 72 7 98 20 108 22 17 88 15 153 -4z m-273 -130 l84 -29 -8
-40 c-17 -95 -17 -96 71 -140 81 -40 98 -62 75 -90 -21 -25 -54 -17 -156 37
-91 48 -106 52 -181 56 -70 4 -88 1 -123 -17 -38 -20 -40 -20 -31 -2 29 53
139 120 199 121 17 0 32 3 32 8 0 10 -120 80 -188 109 l-57 24 100 -4 c77 -3
119 -11 183 -33z m2552 32 c0 -2 -24 -11 -52 -21 -29 -9 -87 -37 -128 -63
l-75 -46 44 -8 c55 -9 115 -45 166 -98 l40 -42 -43 22 c-37 19 -54 22 -125 18
-76 -4 -89 -8 -178 -56 -59 -32 -107 -51 -125 -51 -23 1 -25 3 -6 6 24 5 28
13 11 30 -20 20 0 48 58 78 54 28 58 32 57 65 0 19 -4 51 -8 71 l-8 36 89 28
c48 15 93 29 98 30 15 5 185 6 185 1z m-2353 -167 c41 -20 54 -41 33 -54 -5
-3 -10 -11 -10 -16 0 -6 5 -7 10 -4 6 3 10 -4 10 -16 0 -20 -1 -21 -17 -6 -10
8 -43 26 -73 40 -59 26 -88 51 -70 62 5 3 10 -1 10 -9 0 -9 4 -16 9 -16 5 0 7
9 4 20 -4 16 0 20 23 20 15 0 47 -9 71 -21z m1989 8 c13 -13 -15 -38 -69 -62
-34 -14 -70 -34 -79 -42 -17 -15 -18 -13 -18 29 0 44 2 47 43 67 38 20 107 24
123 8z"/>
<path d="M614 591 c9 -14 -37 -101 -54 -101 -9 -1 -5 -6 10 -15 30 -17 48 -19
32 -3 -18 18 4 50 31 43 20 -6 21 -5 4 8 -10 9 -15 21 -11 31 7 18 29 21 39 6
8 -13 25 -13 25 0 0 5 -16 17 -36 25 -42 17 -47 18 -40 6z"/>
<path d="M2335 580 c-23 -26 -13 -47 26 -58 36 -9 43 -20 29 -42 -8 -12 -13
-13 -30 -2 -18 11 -20 10 -20 -8 0 -35 57 -18 72 22 9 22 -11 44 -44 52 -16 4
-28 13 -28 22 0 11 6 15 20 11 13 -3 20 0 20 9 0 20 -24 17 -45 -6z"/>
<path d="M2236 525 c-18 -13 -18 -16 -4 -27 26 -22 60 -77 53 -88 -9 -14 7
-12 28 4 20 15 23 27 5 21 -19 -7 -69 80 -55 94 16 16 -5 13 -27 -4z"/>
<path d="M740 513 c-1 -23 -57 -86 -70 -78 -17 11 -11 -7 8 -21 20 -16 36 -18
27 -4 -9 14 55 86 73 82 19 -4 6 15 -19 28 -15 9 -19 7 -19 -7z"/>
<path d="M815 460 c9 -14 -55 -86 -72 -82 -25 6 -13 -7 30 -33 56 -32 82 -32
112 1 34 37 31 57 -14 93 -38 30 -69 41 -56 21z m60 -44 c13 -19 14 -29 5 -45
-17 -33 -48 -45 -77 -30 -26 14 -25 26 10 69 27 36 42 37 62 6z"/>
<path d="M2110 428 c-23 -16 -30 -24 -19 -26 21 -4 62 -79 55 -98 -4 -10 -2
-13 7 -8 35 20 37 26 14 44 -30 25 -14 37 28 21 35 -12 55 -9 55 10 0 6 -5 7
-11 4 -5 -4 -22 -2 -37 4 -21 9 -28 19 -27 39 0 35 -21 38 -65 10z m47 -14 c9
-23 -11 -38 -26 -20 -13 16 -7 36 10 36 5 0 12 -7 16 -16z"/>
<path d="M964 365 c6 -17 -35 -90 -56 -98 -7 -2 8 -15 35 -28 45 -22 48 -22
64 -6 17 17 16 17 -12 12 -42 -8 -60 6 -46 34 10 17 15 19 31 11 24 -13 27 -2
5 14 -13 10 -14 14 -2 30 12 17 15 17 29 2 18 -17 38 -21 38 -8 0 4 -21 18
-46 30 -38 19 -45 20 -40 7z"/>
<path d="M1983 353 c-18 -9 -33 -21 -33 -25 0 -5 4 -7 8 -4 12 7 53 -81 46
-99 -5 -13 3 -12 40 7 40 19 46 26 45 52 -1 28 -2 29 -8 7 -3 -13 -16 -30 -28
-38 -20 -13 -23 -12 -33 7 -10 18 -8 24 7 36 17 14 17 15 -3 9 -15 -4 -24 0
-28 11 -8 21 1 34 25 34 10 0 19 5 19 10 0 14 -19 11 -57 -7z"/>
<path d="M1860 300 c-31 -12 -46 -24 -48 -39 -2 -11 1 -21 7 -21 6 0 11 9 11
20 0 11 6 20 13 20 20 0 39 -91 24 -109 -10 -11 -8 -13 13 -6 14 4 32 11 40
16 13 7 12 8 -2 9 -12 0 -21 14 -28 41 -13 47 -6 79 12 61 18 -18 27 -14 21 8
-6 23 -5 23 -63 0z"/>
<path d="M1184 274 c9 -23 -16 -104 -32 -104 -7 0 -11 -4 -7 -9 10 -17 94 -25
110 -11 23 19 18 33 -5 17 -11 -8 -31 -12 -44 -10 -18 4 -22 10 -18 29 4 20 8
23 30 17 17 -4 23 -2 18 6 -4 6 -14 11 -22 11 -16 0 -18 9 -4 30 8 12 13 13
29 3 14 -9 22 -9 27 -2 8 13 7 14 -44 27 -37 9 -43 8 -38 -4z"/>
<path d="M1733 263 c-10 -3 -10 -10 -2 -25 6 -11 9 -40 7 -65 -3 -40 -1 -44
17 -39 11 3 24 6 29 6 6 0 3 6 -6 13 -18 13 -27 84 -14 105 7 12 -8 15 -31 5z"/>
<path d="M1326 234 c-9 -24 3 -32 15 -11 16 27 40 22 34 -8 -3 -14 -8 -37 -11
-52 -3 -15 -10 -31 -16 -34 -5 -4 4 -8 21 -11 17 -2 31 -1 31 4 0 4 -4 8 -10
8 -9 0 -7 23 6 88 6 28 24 29 31 1 4 -16 8 -17 14 -7 20 30 10 38 -50 38 -45
0 -60 -4 -65 -16z"/>
<path d="M1575 240 c-3 -5 -1 -10 4 -10 15 0 14 -93 -1 -108 -9 -9 -5 -12 18
-11 49 2 76 13 85 37 10 27 -2 29 -19 2 -7 -11 -21 -20 -32 -20 -17 0 -20 7
-20 48 0 26 5 53 12 60 9 9 6 12 -14 12 -15 0 -30 -4 -33 -10z"/>
</g>
</svg>
